<svg viewBox="346.7625000000003 519.6153846153848 3269.475000000001 2771.282051282052" xmlns="http://www.w3.org/2000/svg" xmlns:xlink="http://www.w3.org/1999/xlink" overflow="visible" width="3269.475000000001px" height="2771.282051282052px"><defs><path d="M93.974,96.793 C60.909,129.859 0,353.482 0,353.482 L0,353.482 C0,353.482 107.896,377.845 180.987,361.313 L180.987,361.313 L187.078,337.82 L151.061,674.939 C151.061,674.939 407.503,721.041 629.367,649.006 L629.367,649.006 L642.334,352.227 C642.334,352.227 727.333,359.431 784.961,347.905 L784.961,347.905 C784.961,347.905 728.774,131.802 674.028,88.582 L674.028,88.582 C619.283,45.362 483.635,9.766 483.635,9.766 L483.635,9.766 C483.635,9.766 474.786,55.091 387.616,51.078 L387.616,51.078 C323.951,48.147 298.756,12.626 289.15,0.575 L289.15,0.575 C289.15,0.575 127.04,63.728 93.974,96.793" id="masterspot-illustrationworking-from-home-path-9"/><path d="M93.974,96.793 C60.909,129.859 0,353.482 0,353.482 L0,353.482 C0,353.482 107.896,377.845 180.987,361.313 L180.987,361.313 L187.078,337.82 L151.061,674.939 C151.061,674.939 407.503,721.041 629.367,649.006 L629.367,649.006 L642.334,352.227 C642.334,352.227 727.333,359.431 784.961,347.905 L784.961,347.905 C784.961,347.905 728.774,131.802 674.028,88.582 L674.028,88.582 C619.283,45.362 483.635,9.766 483.635,9.766 L483.635,9.766 C483.635,9.766 474.786,55.091 387.616,51.078 L387.616,51.078 C323.951,48.147 298.756,12.626 289.15,0.575 L289.15,0.575 C289.15,0.575 127.04,63.728 93.974,96.793" id="masterspot-illustrationworking-from-home-path-11"/><path d="M93.974,96.793 C60.909,129.859 0,353.482 0,353.482 L0,353.482 C0,353.482 107.896,377.845 180.987,361.313 L180.987,361.313 L187.078,337.82 L151.061,674.939 C151.061,674.939 407.503,721.041 629.367,649.006 L629.367,649.006 L642.334,352.227 C642.334,352.227 727.333,359.431 784.961,347.905 L784.961,347.905 C784.961,347.905 728.774,131.802 674.028,88.582 L674.028,88.582 C619.283,45.362 483.635,9.766 483.635,9.766 L483.635,9.766 C483.635,9.766 474.786,55.091 387.616,51.078 L387.616,51.078 C323.951,48.147 298.756,12.626 289.15,0.575 L289.15,0.575 C289.15,0.575 127.04,63.728 93.974,96.793" id="masterspot-illustrationworking-from-home-path-13"/><path d="M93.974,96.793 C60.909,129.859 0,353.482 0,353.482 L0,353.482 C0,353.482 107.896,377.845 180.987,361.313 L180.987,361.313 L187.078,337.82 L151.061,674.939 C151.061,674.939 407.503,721.041 629.367,649.006 L629.367,649.006 L642.334,352.227 C642.334,352.227 727.333,359.431 784.961,347.905 L784.961,347.905 C784.961,347.905 728.774,131.802 674.028,88.582 L674.028,88.582 C619.283,45.362 483.635,9.766 483.635,9.766 L483.635,9.766 C483.635,9.766 474.786,55.091 387.616,51.078 L387.616,51.078 C323.951,48.147 298.756,12.626 289.15,0.575 L289.15,0.575 C289.15,0.575 127.04,63.728 93.974,96.793" id="masterspot-illustrationworking-from-home-path-15"/><path d="M93.974,96.793 C60.909,129.859 0,353.482 0,353.482 L0,353.482 C0,353.482 107.896,377.845 180.987,361.313 L180.987,361.313 L187.078,337.82 L151.061,674.939 C151.061,674.939 407.503,721.041 629.367,649.006 L629.367,649.006 L642.334,352.227 C642.334,352.227 727.333,359.431 784.961,347.905 L784.961,347.905 C784.961,347.905 728.774,131.802 674.028,88.582 L674.028,88.582 C619.283,45.362 483.635,9.766 483.635,9.766 L483.635,9.766 C483.635,9.766 474.786,55.091 387.616,51.078 L387.616,51.078 C323.951,48.147 298.756,12.626 289.15,0.575 L289.15,0.575 C289.15,0.575 127.04,63.728 93.974,96.793" id="masterspot-illustrationworking-from-home-path-17"/><path d="M93.974,96.793 C60.909,129.859 0,353.482 0,353.482 L0,353.482 C0,353.482 107.896,377.845 180.987,361.313 L180.987,361.313 L187.078,337.82 L151.061,674.939 C151.061,674.939 407.503,721.041 629.367,649.006 L629.367,649.006 L642.334,352.227 C642.334,352.227 727.333,359.431 784.961,347.905 L784.961,347.905 C784.961,347.905 728.774,131.802 674.028,88.582 L674.028,88.582 C619.283,45.362 483.635,9.766 483.635,9.766 L483.635,9.766 C483.635,9.766 474.786,55.091 387.616,51.078 L387.616,51.078 C323.951,48.147 298.756,12.626 289.15,0.575 L289.15,0.575 C289.15,0.575 127.04,63.728 93.974,96.793" id="masterspot-illustrationworking-from-home-path-19"/><path d="M93.974,96.793 C60.909,129.859 0,353.482 0,353.482 L0,353.482 C0,353.482 107.896,377.845 180.987,361.313 L180.987,361.313 L187.078,337.82 L151.061,674.939 C151.061,674.939 407.503,721.041 629.367,649.006 L629.367,649.006 L642.334,352.227 C642.334,352.227 727.333,359.431 784.961,347.905 L784.961,347.905 C784.961,347.905 728.774,131.802 674.028,88.582 L674.028,88.582 C619.283,45.362 483.635,9.766 483.635,9.766 L483.635,9.766 C483.635,9.766 474.786,55.091 387.616,51.078 L387.616,51.078 C323.951,48.147 298.756,12.626 289.15,0.575 L289.15,0.575 C289.15,0.575 127.04,63.728 93.974,96.793" id="masterspot-illustrationworking-from-home-path-21"/><path d="M93.974,96.793 C60.909,129.859 0,353.482 0,353.482 L0,353.482 C0,353.482 107.896,377.845 180.987,361.313 L180.987,361.313 L187.078,337.82 L151.061,674.939 C151.061,674.939 407.503,721.041 629.367,649.006 L629.367,649.006 L642.334,352.227 C642.334,352.227 727.333,359.431 784.961,347.905 L784.961,347.905 C784.961,347.905 728.774,131.802 674.028,88.582 L674.028,88.582 C619.283,45.362 483.635,9.766 483.635,9.766 L483.635,9.766 C483.635,9.766 474.786,55.091 387.616,51.078 L387.616,51.078 C323.951,48.147 298.756,12.626 289.15,0.575 L289.15,0.575 C289.15,0.575 127.04,63.728 93.974,96.793" id="masterspot-illustrationworking-from-home-path-23"/><path d="M93.974,96.793 C60.909,129.859 0,353.482 0,353.482 L0,353.482 C0,353.482 107.896,377.845 180.987,361.313 L180.987,361.313 L187.078,337.82 L151.061,674.939 C151.061,674.939 407.503,721.041 629.367,649.006 L629.367,649.006 L642.334,352.227 C642.334,352.227 727.333,359.431 784.961,347.905 L784.961,347.905 C784.961,347.905 728.774,131.802 674.028,88.582 L674.028,88.582 C619.283,45.362 483.635,9.766 483.635,9.766 L483.635,9.766 C483.635,9.766 474.786,55.091 387.616,51.078 L387.616,51.078 C323.951,48.147 298.756,12.626 289.15,0.575 L289.15,0.575 C289.15,0.575 127.04,63.728 93.974,96.793" id="masterspot-illustrationworking-from-home-path-25"/><path d="M93.974,96.793 C60.909,129.859 0,353.482 0,353.482 L0,353.482 C0,353.482 107.896,377.845 180.987,361.313 L180.987,361.313 L187.078,337.82 L151.061,674.939 C151.061,674.939 407.503,721.041 629.367,649.006 L629.367,649.006 L642.334,352.227 C642.334,352.227 727.333,359.431 784.961,347.905 L784.961,347.905 C784.961,347.905 728.774,131.802 674.028,88.582 L674.028,88.582 C619.283,45.362 483.635,9.766 483.635,9.766 L483.635,9.766 C483.635,9.766 474.786,55.091 387.616,51.078 L387.616,51.078 C323.951,48.147 298.756,12.626 289.15,0.575 L289.15,0.575 C289.15,0.575 127.04,63.728 93.974,96.793" id="masterspot-illustrationworking-from-home-path-27"/><path d="M93.974,96.793 C60.909,129.859 0,353.482 0,353.482 L0,353.482 C0,353.482 107.896,377.845 180.987,361.313 L180.987,361.313 L187.078,337.82 L151.061,674.939 C151.061,674.939 407.503,721.041 629.367,649.006 L629.367,649.006 L642.334,352.227 C642.334,352.227 727.333,359.431 784.961,347.905 L784.961,347.905 C784.961,347.905 728.774,131.802 674.028,88.582 L674.028,88.582 C619.283,45.362 483.635,9.766 483.635,9.766 L483.635,9.766 C483.635,9.766 474.786,55.091 387.616,51.078 L387.616,51.078 C323.951,48.147 298.756,12.626 289.15,0.575 L289.15,0.575 C289.15,0.575 127.04,63.728 93.974,96.793" id="masterspot-illustrationworking-from-home-path-29"/><path d="M93.974,96.793 C60.909,129.859 0,353.482 0,353.482 L0,353.482 C0,353.482 107.896,377.845 180.987,361.313 L180.987,361.313 L187.078,337.82 L151.061,674.939 C151.061,674.939 407.503,721.041 629.367,649.006 L629.367,649.006 L642.334,352.227 C642.334,352.227 727.333,359.431 784.961,347.905 L784.961,347.905 C784.961,347.905 728.774,131.802 674.028,88.582 L674.028,88.582 C619.283,45.362 483.635,9.766 483.635,9.766 L483.635,9.766 C483.635,9.766 474.786,55.091 387.616,51.078 L387.616,51.078 C323.951,48.147 298.756,12.626 289.15,0.575 L289.15,0.575 C289.15,0.575 127.04,63.728 93.974,96.793" id="masterspot-illustrationworking-from-home-path-31"/><path d="M93.974,96.793 C60.909,129.859 0,353.482 0,353.482 L0,353.482 C0,353.482 107.896,377.845 180.987,361.313 L180.987,361.313 L187.078,337.82 L151.061,674.939 C151.061,674.939 407.503,721.041 629.367,649.006 L629.367,649.006 L642.334,352.227 C642.334,352.227 727.333,359.431 784.961,347.905 L784.961,347.905 C784.961,347.905 728.774,131.802 674.028,88.582 L674.028,88.582 C619.283,45.362 483.635,9.766 483.635,9.766 L483.635,9.766 C483.635,9.766 474.786,55.091 387.616,51.078 L387.616,51.078 C323.951,48.147 298.756,12.626 289.15,0.575 L289.15,0.575 C289.15,0.575 127.04,63.728 93.974,96.793" id="masterspot-illustrationworking-from-home-path-33"/><path d="M93.974,96.793 C60.909,129.859 0,353.482 0,353.482 L0,353.482 C0,353.482 107.896,377.845 180.987,361.313 L180.987,361.313 L187.078,337.82 L151.061,674.939 C151.061,674.939 407.503,721.041 629.367,649.006 L629.367,649.006 L642.334,352.227 C642.334,352.227 727.333,359.431 784.961,347.905 L784.961,347.905 C784.961,347.905 728.774,131.802 674.028,88.582 L674.028,88.582 C619.283,45.362 483.635,9.766 483.635,9.766 L483.635,9.766 C483.635,9.766 474.786,55.091 387.616,51.078 L387.616,51.078 C323.951,48.147 298.756,12.626 289.15,0.575 L289.15,0.575 C289.15,0.575 127.04,63.728 93.974,96.793" id="masterspot-illustrationworking-from-home-path-35"/><path d="M93.974,96.793 C60.909,129.859 0,353.482 0,353.482 L0,353.482 C0,353.482 107.896,377.845 180.987,361.313 L180.987,361.313 L187.078,337.82 L151.061,674.939 C151.061,674.939 407.503,721.041 629.367,649.006 L629.367,649.006 L642.334,352.227 C642.334,352.227 727.333,359.431 784.961,347.905 L784.961,347.905 C784.961,347.905 728.774,131.802 674.028,88.582 L674.028,88.582 C619.283,45.362 483.635,9.766 483.635,9.766 L483.635,9.766 C483.635,9.766 474.786,55.091 387.616,51.078 L387.616,51.078 C323.951,48.147 298.756,12.626 289.15,0.575 L289.15,0.575 C289.15,0.575 127.04,63.728 93.974,96.793" id="masterspot-illustrationworking-from-home-path-37"/><path d="M93.974,96.793 C60.909,129.859 0,353.482 0,353.482 L0,353.482 C0,353.482 107.896,377.845 180.987,361.313 L180.987,361.313 L187.078,337.82 L151.061,674.939 C151.061,674.939 407.503,721.041 629.367,649.006 L629.367,649.006 L642.334,352.227 C642.334,352.227 727.333,359.431 784.961,347.905 L784.961,347.905 C784.961,347.905 728.774,131.802 674.028,88.582 L674.028,88.582 C619.283,45.362 483.635,9.766 483.635,9.766 L483.635,9.766 C483.635,9.766 474.786,55.091 387.616,51.078 L387.616,51.078 C323.951,48.147 298.756,12.626 289.15,0.575 L289.15,0.575 C289.15,0.575 127.04,63.728 93.974,96.793" id="masterspot-illustrationworking-from-home-path-39"/><path d="M93.974,96.793 C60.909,129.859 0,353.482 0,353.482 L0,353.482 C0,353.482 107.896,377.845 180.987,361.313 L180.987,361.313 L187.078,337.82 L151.061,674.939 C151.061,674.939 407.503,721.041 629.367,649.006 L629.367,649.006 L642.334,352.227 C642.334,352.227 727.333,359.431 784.961,347.905 L784.961,347.905 C784.961,347.905 728.774,131.802 674.028,88.582 L674.028,88.582 C619.283,45.362 483.635,9.766 483.635,9.766 L483.635,9.766 C483.635,9.766 474.786,55.091 387.616,51.078 L387.616,51.078 C323.951,48.147 298.756,12.626 289.15,0.575 L289.15,0.575 C289.15,0.575 127.04,63.728 93.974,96.793" id="masterspot-illustrationworking-from-home-path-41"/><path d="M93.974,96.793 C60.909,129.859 0,353.482 0,353.482 L0,353.482 C0,353.482 107.896,377.845 180.987,361.313 L180.987,361.313 L187.078,337.82 L151.061,674.939 C151.061,674.939 407.503,721.041 629.367,649.006 L629.367,649.006 L642.334,352.227 C642.334,352.227 727.333,359.431 784.961,347.905 L784.961,347.905 C784.961,347.905 728.774,131.802 674.028,88.582 L674.028,88.582 C619.283,45.362 483.635,9.766 483.635,9.766 L483.635,9.766 C483.635,9.766 474.786,55.091 387.616,51.078 L387.616,51.078 C323.951,48.147 298.756,12.626 289.15,0.575 L289.15,0.575 C289.15,0.575 127.04,63.728 93.974,96.793" id="masterspot-illustrationworking-from-home-path-43"/><path d="M93.974,96.793 C60.909,129.859 0,353.482 0,353.482 L0,353.482 C0,353.482 107.896,377.845 180.987,361.313 L180.987,361.313 L187.078,337.82 L151.061,674.939 C151.061,674.939 407.503,721.041 629.367,649.006 L629.367,649.006 L642.334,352.227 C642.334,352.227 727.333,359.431 784.961,347.905 L784.961,347.905 C784.961,347.905 728.774,131.802 674.028,88.582 L674.028,88.582 C619.283,45.362 483.635,9.766 483.635,9.766 L483.635,9.766 C483.635,9.766 474.786,55.091 387.616,51.078 L387.616,51.078 C323.951,48.147 298.756,12.626 289.15,0.575 L289.15,0.575 C289.15,0.575 127.04,63.728 93.974,96.793" id="masterspot-illustrationworking-from-home-path-45"/><path d="M93.974,96.793 C60.909,129.859 0,353.482 0,353.482 L0,353.482 C0,353.482 107.896,377.845 180.987,361.313 L180.987,361.313 L187.078,337.82 L151.061,674.939 C151.061,674.939 407.503,721.041 629.367,649.006 L629.367,649.006 L642.334,352.227 C642.334,352.227 727.333,359.431 784.961,347.905 L784.961,347.905 C784.961,347.905 728.774,131.802 674.028,88.582 L674.028,88.582 C619.283,45.362 483.635,9.766 483.635,9.766 L483.635,9.766 C483.635,9.766 474.786,55.091 387.616,51.078 L387.616,51.078 C323.951,48.147 298.756,12.626 289.15,0.575 L289.15,0.575 C289.15,0.575 127.04,63.728 93.974,96.793" id="masterspot-illustrationworking-from-home-path-47"/><path d="M93.974,96.793 C60.909,129.859 0,353.482 0,353.482 L0,353.482 C0,353.482 107.896,377.845 180.987,361.313 L180.987,361.313 L187.078,337.82 L151.061,674.939 C151.061,674.939 407.503,721.041 629.367,649.006 L629.367,649.006 L642.334,352.227 C642.334,352.227 727.333,359.431 784.961,347.905 L784.961,347.905 C784.961,347.905 728.774,131.802 674.028,88.582 L674.028,88.582 C619.283,45.362 483.635,9.766 483.635,9.766 L483.635,9.766 C483.635,9.766 474.786,55.091 387.616,51.078 L387.616,51.078 C323.951,48.147 298.756,12.626 289.15,0.575 L289.15,0.575 C289.15,0.575 127.04,63.728 93.974,96.793" id="masterspot-illustrationworking-from-home-path-49"/><path d="M93.974,96.793 C60.909,129.859 0,353.482 0,353.482 L0,353.482 C0,353.482 107.896,377.845 180.987,361.313 L180.987,361.313 L187.078,337.82 L151.061,674.939 C151.061,674.939 407.503,721.041 629.367,649.006 L629.367,649.006 L642.334,352.227 C642.334,352.227 727.333,359.431 784.961,347.905 L784.961,347.905 C784.961,347.905 728.774,131.802 674.028,88.582 L674.028,88.582 C619.283,45.362 483.635,9.766 483.635,9.766 L483.635,9.766 C483.635,9.766 474.786,55.091 387.616,51.078 L387.616,51.078 C323.951,48.147 298.756,12.626 289.15,0.575 L289.15,0.575 C289.15,0.575 127.04,63.728 93.974,96.793" id="masterspot-illustrationworking-from-home-path-51"/><path d="M93.974,96.793 C60.909,129.859 0,353.482 0,353.482 L0,353.482 C0,353.482 107.896,377.845 180.987,361.313 L180.987,361.313 L187.078,337.82 L151.061,674.939 C151.061,674.939 407.503,721.041 629.367,649.006 L629.367,649.006 L642.334,352.227 C642.334,352.227 727.333,359.431 784.961,347.905 L784.961,347.905 C784.961,347.905 728.774,131.802 674.028,88.582 L674.028,88.582 C619.283,45.362 483.635,9.766 483.635,9.766 L483.635,9.766 C483.635,9.766 474.786,55.091 387.616,51.078 L387.616,51.078 C323.951,48.147 298.756,12.626 289.15,0.575 L289.15,0.575 C289.15,0.575 127.04,63.728 93.974,96.793" id="masterspot-illustrationworking-from-home-path-53"/><path d="M93.974,96.793 C60.909,129.859 0,353.482 0,353.482 L0,353.482 C0,353.482 107.896,377.845 180.987,361.313 L180.987,361.313 L187.078,337.82 L151.061,674.939 C151.061,674.939 407.503,721.041 629.367,649.006 L629.367,649.006 L642.334,352.227 C642.334,352.227 727.333,359.431 784.961,347.905 L784.961,347.905 C784.961,347.905 728.774,131.802 674.028,88.582 L674.028,88.582 C619.283,45.362 483.635,9.766 483.635,9.766 L483.635,9.766 C483.635,9.766 474.786,55.091 387.616,51.078 L387.616,51.078 C323.951,48.147 298.756,12.626 289.15,0.575 L289.15,0.575 C289.15,0.575 127.04,63.728 93.974,96.793" id="masterspot-illustrationworking-from-home-path-55"/><path d="M93.974,96.793 C60.909,129.859 0,353.482 0,353.482 L0,353.482 C0,353.482 107.896,377.845 180.987,361.313 L180.987,361.313 L187.078,337.82 L151.061,674.939 C151.061,674.939 407.503,721.041 629.367,649.006 L629.367,649.006 L642.334,352.227 C642.334,352.227 727.333,359.431 784.961,347.905 L784.961,347.905 C784.961,347.905 728.774,131.802 674.028,88.582 L674.028,88.582 C619.283,45.362 483.635,9.766 483.635,9.766 L483.635,9.766 C483.635,9.766 474.786,55.091 387.616,51.078 L387.616,51.078 C323.951,48.147 298.756,12.626 289.15,0.575 L289.15,0.575 C289.15,0.575 127.04,63.728 93.974,96.793" id="masterspot-illustrationworking-from-home-path-57"/><polygon id="masterspot-illustrationworking-from-home-path-1" points="0 0.1068 43.9995 0.1068 43.9995 44.1068 0 44.1068"/><polygon id="masterspot-illustrationworking-from-home-path-3" points="-0.0005 0.107 43.9995 0.107 43.9995 44.1068 -0.0005 44.1068"/><polygon id="masterspot-illustrationworking-from-home-path-5" points="0.605109466 0.039 295.690775 0.039 295.690775 161.5121 0.605109466 161.5121"/><polygon id="masterspot-illustrationworking-from-home-path-7" points="0 280.06 382.454938 280.06 382.454938 519.503 0 519.503"/><polygon id="masterspot-illustrationworking-from-home-path-59" points="0.000139166 0.824 77.7317814 0.824 77.7317814 24.5342 0.000139166 24.5342"/><polygon id="masterspot-illustrationworking-from-home-path-61" points="0.528516447 0.459695949 51.522 0.459695949 51.522 17.6481 0.528516447 17.6481"/></defs><g id="Master/Spot Illustration/Working from Home" stroke="none" stroke-width="1" fill="none" fill-rule="evenodd"><g id="Blobs" opacity=".5" transform="translate(1982.000000, 1300.000000) scale(-1, 1) translate(-1982.000000, -1300.000000) translate(859.000000, 0.000000) scale(1 1)"><g id="Blobs/3" stroke="none" stroke-width="1" fill="none" fill-rule="evenodd"><path d="M1057.0238,649.440884 C1119.37638,723.575723 1131.98508,841.106564 1117.64916,943.629621 C1103.14053,1046.15268 1061.68729,1133.48713 999.161991,1197.67706 C936.636689,1261.86698 853.212046,1302.91236 772.896397,1299.83848 C692.408025,1296.58378 615.028646,1249.20981 539.376486,1185.01989 C463.724325,1120.82997 389.626661,1039.82409 383.408676,952.489638 C377.363412,864.974366 439.197826,771.311326 515.022708,697.176488 C590.674869,623.041649 680.144775,568.435012 781.187044,556.501111 C882.229313,544.56721 994.498501,575.306046 1057.0238,649.440884 Z" id="Path" fill="#FCEBEC"/><path d="M1883.81663,908.251252 C1999.09803,1021.11964 2080.43717,1238.82626 2093.89176,1476.60828 C2107.65214,1713.94418 2053.83377,1971.80161 1938.85815,2132.40485 C1823.57675,2293.0081 1646.83232,2356.35715 1476.20362,2348.32699 C1305.26913,2339.85071 1140.14458,2259.54909 992.449838,2098.94585 C844.7551,1938.3426 714.184389,1697.43774 716.019106,1459.2096 C717.853823,1220.98145 851.788182,985.430032 999.788707,872.561643 C1147.48345,759.247133 1308.93856,769.061775 1464.27796,777.984178 C1619.61735,786.90658 1768.84102,795.382862 1883.81663,908.251252 Z" id="Path" fill="#FFF5F3"/></g></g><ellipse id="Floor" fill="#D5ECFF" opacity=".5" cx="1982" cy="3206" rx="1602" ry="58"/><g id="Desk" transform="translate(420.000000, 1801.000000)"><g id="Group" transform="translate(341.000000, 142.186800)"><polygon id="Fill-43" fill="#DDB0C8" points="5.88329385e-12 1240.159 210.424 0 273.104 13.431 483.719 1238.436 442.032 1238.436 241.454 30.837 38.812 1239.972"/><polygon id="Fill-48" fill="#EECCDC" points="53.9206 72.281 406.7116 72.281 406.7116 27.38 53.9206 27.38"/></g><g id="Group-2" transform="translate(1957.440900, 141.138000)"><polygon id="Fill-44" fill="#DDB0C8" points="-1.39266376e-12 1240.159 210.424 0 273.104 13.431 483.719 1238.436 442.033 1238.436 241.454 30.838 38.812 1239.973"/><polygon id="Fill-49" fill="#EECCDC" points="53.9192 73.2808 406.7112 73.2808 406.7112 28.3798 53.9192 28.3798"/></g><path d="M2765.95785,169.981 L19.0429116,169.981 C8.52571326,169.981 0,158.756 0,144.91 L0,25.071 C0,11.225 8.52571326,0 19.0429116,0 L2765.95785,0 C2776.47505,0 2785,11.225 2785,25.071 L2785,144.91 C2785,158.756 2776.47505,169.981 2765.95785,169.981" id="Fill-42" fill="#EECCDC"/></g><g id="Lamp" transform="translate(2532.000000, 706.000000)"><path d="M672.01,472.14 C672.01,472.14 661.89,486.3 649.24,498.45 C636.59,510.59 622.43,500.47 622.43,500.47 L535.9,408.38 L539.02,404.75 L465.66,337.15 L465.66,1054.84 L583.03,1054.84 C604.69,1054.84 622.25,1072.4 622.25,1094.06 L278.91,1094.06 C278.91,1083.23 283.3,1073.43 290.4,1066.33 C297.49,1059.23 307.3,1054.84 318.13,1054.84 L435.34,1054.84 L435.34,309.21 L181.47,75.24 L180.35,81.68 C180.35,81.68 210.78,114.28 237.95,141.99 C265.11,169.7 261.85,201.22 261.85,201.22 L133.08,176.22 L133.09,176.15 L-1.36424205e-12,148.59 C-1.36424205e-12,148.59 9.17,118.27 44.94,103.22 C80.71,88.16 121.37,69.86 121.37,69.86 L131.99,23.33 L149.32,26.91 L155.89,0 L165.67,1.85 L165.68,1.81 L175.52,3.91 L171.18,31.27 L188.54,34.67 L187.14,42.7 L557.12,383.69 L560.69,379.54 C560.69,379.54 647.73,440.26 661.89,450.38 C676.06,460.5 672.01,472.14 672.01,472.14" id="Fill-45" fill="#EECCDC"/><path d="M0.000200000001,148.5902 C0.000200000001,148.5902 53.7822,133.2562 134.9752,150.8572 C216.1672,168.4582 261.8502,201.2202 261.8502,201.2202 C261.8502,201.2202 208.2192,216.1522 129.2972,201.3892 C50.3752,186.6272 0.000200000001,148.5902 0.000200000001,148.5902" id="Fill-46" fill="#DDB0C8"/><path d="M107.2703,145.9081 C107.2703,145.9081 105.7753,165.8451 130.6953,172.8221 C155.6163,179.8001 161.0983,157.3711 161.0983,157.3711 C161.0983,157.3711 137.1173,150.4131 107.2703,145.9081" id="Fill-47" fill="#FCEBEC"/></g><g id="Chair" transform="translate(1373.000000, 2299.000000)"><path d="M125.5253,62.7326 C113.7853,130.2376 0.7863,858.1256 0.7863,858.1256 C0.7863,858.1256 3.3353,876.5076 21.7183,879.2116 C40.1023,881.9146 49.8343,865.1536 49.8343,865.1536 L209.1993,80.4196 L125.5253,62.7326 Z" id="Fill-52" fill="#DDB0C8"/><path d="M496.3634,79.9718 C508.7664,147.3588 655.2464,869.2528 655.2464,869.2528 C655.2464,869.2528 664.0124,885.6108 682.1924,881.7698 C700.3724,877.9298 703.6864,858.8328 703.6864,858.8328 L580.9774,67.5388 L496.3634,79.9718 Z" id="Fill-53" fill="#DDB0C8"/><path d="M682.1058,77.7736 C694.5088,145.1606 840.9888,867.0546 840.9888,867.0546 C840.9888,867.0546 849.7548,883.4126 867.9348,879.5726 C886.1148,875.7316 889.4288,856.6346 889.4288,856.6346 L766.7198,65.3406 L682.1058,77.7736 Z" id="Fill-54" fill="#DDB0C8"/><path d="M780.8434,93.5514 L102.9344,93.5514 C77.2564,93.5514 56.4404,72.7354 56.4404,47.0574 C56.4404,21.3804 77.2564,0.5644 102.9344,0.5644 L780.8434,0.5644 C806.5214,0.5644 827.3374,21.3804 827.3374,47.0574 C827.3374,72.7354 806.5214,93.5514 780.8434,93.5514" id="Fill-55" fill="#EECCDC"/></g><g id="Computer-Screen" transform="translate(1211.000000, 872.000000)"><path d="M1177.7652,775.534 L36.4342,775.534 C16.5612,775.534 0.4502,759.423 0.4502,739.55 L0.4502,35.985 C0.4502,16.111 16.5612,-1.13686838e-13 36.4342,-1.13686838e-13 L1177.7652,-1.13686838e-13 C1197.6392,-1.13686838e-13 1213.7492,16.111 1213.7492,35.985 L1213.7492,739.55 C1213.7492,759.423 1197.6392,775.534 1177.7652,775.534" id="Fill-56" fill="#DDB0C8"/><path d="M1162.8224,619.7313 L47.3324,619.7313 L47.3324,73.4143 C47.3324,58.7663 59.2074,46.8913 73.8554,46.8913 L1137.5494,46.8913 C1152.1974,46.8913 1164.0724,58.7663 1164.0724,73.4143 L1164.0724,618.4813 C1164.0724,619.1713 1163.5124,619.7313 1162.8224,619.7313" id="Fill-57" fill="#FCEBEC"/><path d="M1213.94,613.5941 L1213.94,749.5641 C1213.94,764.2141 1202.06,776.0841 1187.41,776.0841 L788.46,776.0841 L788.46,873.8041 C817.97,875.6841 841.32,900.2141 841.32,930.1941 L382.28,930.1941 C382.28,914.5841 388.6,900.4641 398.83,890.2341 C408.57,880.4941 421.84,874.2941 436.56,873.7341 L436.56,776.0841 L26.53,776.0841 C11.88,776.0841 1.13686838e-12,764.2141 1.13686838e-12,749.5641 L1.13686838e-12,612.3441 L1212.69,612.3441 C1213.38,612.3441 1213.94,612.9041 1213.94,613.5941" id="Fill-58" fill="#DDB0C8"/><path d="M638.8717,696.1624 C638.8717,712.4134 625.6967,725.5884 609.4457,725.5884 C593.1947,725.5884 580.0197,712.4134 580.0197,696.1624 C580.0197,679.9114 593.1947,666.7364 609.4457,666.7364 C625.6967,666.7364 638.8717,679.9114 638.8717,696.1624" id="Fill-59" fill="#FCEBEC"/><path d="M1091.6241,103.3002 C1091.6241,108.5182 1087.3941,112.7482 1082.1761,112.7482 C1076.9581,112.7482 1072.7281,108.5182 1072.7281,103.3002 C1072.7281,98.0822 1076.9581,93.8522 1082.1761,93.8522 C1087.3941,93.8522 1091.6241,98.0822 1091.6241,103.3002" id="Fill-60" fill="#FFF"/><path d="M133.691,104.1376 C133.691,109.3556 129.461,113.5856 124.243,113.5856 C119.025,113.5856 114.795,109.3556 114.795,104.1376 C114.795,98.9196 119.025,94.6896 124.243,94.6896 C129.461,94.6896 133.691,98.9196 133.691,104.1376" id="Fill-61" fill="#E93737"/><path d="M172.2213,103.7313 C172.2213,108.9493 167.9913,113.1793 162.7733,113.1793 C157.5553,113.1793 153.3253,108.9493 153.3253,103.7313 C153.3253,98.5133 157.5553,94.2833 162.7733,94.2833 C167.9913,94.2833 172.2213,98.5133 172.2213,103.7313" id="Fill-62" fill="#F9C818"/><path d="M211.9464,103.9784 C211.9464,109.1964 207.7164,113.4264 202.4984,113.4264 C197.2804,113.4264 193.0504,109.1964 193.0504,103.9784 C193.0504,98.7604 197.2804,94.5304 202.4984,94.5304 C207.7164,94.5304 211.9464,98.7604 211.9464,103.9784" id="Fill-63" fill="#1BC0D7"/><path d="M1068.1168,179.059 L123.2338,179.059 C110.3638,179.059 99.9308,168.626 99.9308,155.756 L99.9308,155.756 C99.9308,142.886 110.3638,132.453 123.2338,132.453 L1068.1168,132.453 C1080.9868,132.453 1091.4198,142.886 1091.4198,155.756 L1091.4198,155.756 C1091.4198,168.626 1080.9868,179.059 1068.1168,179.059" id="Fill-64" fill="#FFF"/><path d="M1067.4493,579.1142 L526.9913,579.1142 C515.8343,579.1142 506.7903,570.0702 506.7903,558.9132 L506.7903,227.4852 C506.7903,216.3282 515.8343,207.2832 526.9913,207.2832 L1067.4493,207.2832 C1078.6063,207.2832 1087.6503,216.3282 1087.6503,227.4852 L1087.6503,558.9132 C1087.6503,570.0702 1078.6063,579.1142 1067.4493,579.1142" id="Fill-67" fill="#FFF"/><path d="M689.932,414.8197 L587.318,414.8197 C576.161,414.8197 567.117,405.7757 567.117,394.6187 L567.117,276.4757 C567.117,265.3197 576.161,256.2747 587.318,256.2747 L689.932,256.2747 C701.089,256.2747 710.133,265.3197 710.133,276.4757 L710.133,394.6187 C710.133,405.7757 701.089,414.8197 689.932,414.8197" id="Fill-68" fill="#EECCDC"/><path d="M862.8697,414.5565 L760.2557,414.5565 C749.0987,414.5565 740.0547,405.5125 740.0547,394.3555 L740.0547,276.2125 C740.0547,265.0555 749.0987,256.0115 760.2557,256.0115 L862.8697,256.0115 C874.0267,256.0115 883.0707,265.0555 883.0707,276.2125 L883.0707,394.3555 C883.0707,405.5125 874.0267,414.5565 862.8697,414.5565" id="Fill-69" fill="#EECCDC"/><path d="M1034.3541,414.8207 L931.7401,414.8207 C920.5831,414.8207 911.5391,405.7767 911.5391,394.6197 L911.5391,276.4767 C911.5391,265.3207 920.5831,256.2757 931.7401,256.2757 L1034.3541,256.2757 C1045.5111,256.2757 1054.5551,265.3207 1054.5551,276.4767 L1054.5551,394.6197 C1054.5551,405.7767 1045.5111,414.8207 1034.3541,414.8207" id="Fill-70" fill="#EECCDC"/><path d="M679.9029,406.849 L577.2889,406.849 C566.1319,406.849 557.0879,397.805 557.0879,386.648 L557.0879,268.505 C557.0879,257.348 566.1319,248.304 577.2889,248.304 L679.9029,248.304 C691.0599,248.304 700.1039,257.348 700.1039,268.505 L700.1039,386.648 C700.1039,397.805 691.0599,406.849 679.9029,406.849" id="Fill-71" fill="#FCEBEC"/><path d="M405.715025,578 L150.284975,578 C122.512614,578 100,557.179034 100,531.493551 L100,259.506449 C100,233.820966 122.512614,213 150.284975,213 L405.715025,213 C433.487386,213 456,233.820966 456,259.506449 L456,531.493551 C456,557.179034 433.487386,578 405.715025,578" id="Fill-71-Copy" fill="#FFF"/><g id="Graph-2" transform="translate(147.000000, 265.000000)"><path d="M131,0 C203.349302,0 262,58.4268402 262,130.5 C262,202.57316 203.349302,261 131,261 C58.6506978,261 0,202.57316 0,130.5 C0,58.4268402 58.6506978,0 131,0 Z M131,59.8019417 C91.7406887,59.8019417 59.9147287,91.4545406 59.9147287,130.5 C59.9147287,169.545459 91.7406887,201.198058 131,201.198058 C170.259311,201.198058 202.085271,169.545459 202.085271,130.5 C202.085271,91.4545406 170.259311,59.8019417 131,59.8019417 Z" id="Combined-Shape-Copy-4" fill="#56ACF6"/><path d="M256.000078,91.3498349 L198.940206,109.000895 C192.645183,88.7451416 177.488856,72.386917 158.000368,64.45159 L180.530056,8.99984284 C216.477069,23.6657939 244.423992,53.9082858 256.000078,91.3498349 Z" id="Combined-Shape-Copy-5" fill="#E93737"/><path d="M79.0001492,178.908198 L35.4267629,219.999412 C21.2502803,204.683923 10.6580572,185.944242 4.9998693,165.143011 L62.4110859,148.999938 C65.4762328,160.347021 71.254524,170.567003 79.0001492,178.908198 Z" id="Combined-Shape-Copy-6" fill="#1BC0D7"/></g><path d="M700.141,278.8783 L557.125,278.8783 L557.125,263.8103 C557.125,255.2503 564.065,248.3103 572.625,248.3103 L684.641,248.3103 C693.201,248.3103 700.141,255.2503 700.141,263.8103 L700.141,278.8783 Z" id="Fill-72" fill="#E93737"/><path d="M852.8407,406.5853 L750.2267,406.5853 C739.0697,406.5853 730.0257,397.5413 730.0257,386.3843 L730.0257,268.2413 C730.0257,257.0853 739.0697,248.0403 750.2267,248.0403 L852.8407,248.0403 C863.9977,248.0403 873.0417,257.0853 873.0417,268.2413 L873.0417,386.3843 C873.0417,397.5413 863.9977,406.5853 852.8407,406.5853" id="Fill-73" fill="#FCEBEC"/><path d="M873.0787,278.6146 L730.0627,278.6146 L730.0627,263.5476 C730.0627,254.9866 737.0027,248.0466 745.5627,248.0466 L857.5787,248.0466 C866.1387,248.0466 873.0787,254.9866 873.0787,263.5476 L873.0787,278.6146 Z" id="Fill-74" fill="#1BC0D7"/><path d="M1024.3251,406.85 L921.7111,406.85 C910.5541,406.85 901.5101,397.806 901.5101,386.649 L901.5101,268.506 C901.5101,257.349 910.5541,248.305 921.7111,248.305 L1024.3251,248.305 C1035.4821,248.305 1044.5261,257.349 1044.5261,268.506 L1044.5261,386.649 C1044.5261,397.806 1035.4821,406.85 1024.3251,406.85" id="Fill-75" fill="#FCEBEC"/><path d="M1044.5631,278.8793 L901.5471,278.8793 L901.5471,263.8113 C901.5471,255.2513 908.4871,248.3113 917.0471,248.3113 L1029.0631,248.3113 C1037.6231,248.3113 1044.5631,255.2513 1044.5631,263.8113 L1044.5631,278.8793 Z" id="Fill-76" fill="#56ACF6"/><path d="M1049.34309,475.8832 L565.277106,475.8832 C561.982158,475.8832 559.3101,473.6192 559.3101,470.8252 C559.3101,468.0322 561.982158,465.7682 565.277106,465.7682 L1049.34309,465.7682 C1052.63804,465.7682 1055.3101,468.0322 1055.3101,470.8252 C1055.3101,473.6192 1052.63804,475.8832 1049.34309,475.8832" id="Fill-77" fill="#1BC0D7"/><path d="M1047.34308,521.9982 L563.27594,521.9982 C559.980984,521.9982 557.3101,519.7342 557.3101,516.9402 C557.3101,514.1472 559.980984,511.8832 563.27594,511.8832 L1047.34308,511.8832 C1050.63804,511.8832 1053.3101,514.1472 1053.3101,516.9402 C1053.3101,519.7342 1050.63804,521.9982 1047.34308,521.9982" id="Fill-78" fill="#1BC0D7"/></g><g id="Small Objects" transform="translate(420.000000, 872.000000) scale(1 1)"><g id="Small Objects/Coffee Maker" stroke="none" stroke-width="1" fill="none" fill-rule="evenodd"><g id="Group-12" transform="translate(92.000000, 540.000000)"><polygon id="Fill-1" fill="#0A4343" points="56.64 327.463 187.306 327.463 187.306 267.864 56.64 267.864"/><g id="Group-11" transform="translate(0.000000, 0.203000)" fill="#F6CBC3"><path d="M203.2493,61.1071 L130.2893,60.9871 L130.4493,141.1771 L130.3793,141.1771 L130.5993,253.4271 L187.2993,253.3571 L187.2993,268.0171 L56.7093,268.2171 L56.7093,253.5571 L115.9893,253.4271 L115.9893,118.8371 L116.0393,118.8371 L115.9193,60.9871 L40.3093,61.1271 L40.3093,51.9571 C40.3093,43.4771 47.1893,36.6071 55.6693,36.6071 L113.8893,36.4671 C108.1993,33.1471 104.3893,26.9871 104.3893,19.9371 C104.3893,9.3671 112.9593,0.7971 123.5293,0.7971 C134.0993,0.7971 142.6593,9.3671 142.6593,19.9371 C142.6593,26.9871 138.8493,33.1471 133.1693,36.4671 L188.9393,36.5871 C196.8393,36.5871 203.2493,42.9971 203.2493,50.8971 L203.2493,61.1071 Z" id="Fill-2"/><path d="M203.39793,342.2464 L203.996509,53.0370706 L3.04393179e-05,53.5620925 L42.068,108.951 L42.7081628,342.2464 L203.39793,342.2464 Z M195.98,61.057 L195.414,334.246 L50.686,334.246 L50.0605055,106.24774 L16.09,61.52 L195.98,61.057 Z" id="Stroke-4" fill-rule="nonzero"/><polygon id="Fill-6" points="43.2806 344.3157 16.7306 388.7267 230.1066 388.9997 204.0086 344.1367"/><g id="Group-10" transform="translate(201.000000, 85.000000)"><path d="M88.2015,135.8491 C88.2015,166.9381 64.5575,192.1361 35.3875,192.1361 L11.6995,192.1361 L11.6995,17.8271 L32.6945,17.8271 C63.3545,17.8271 88.2015,44.3081 88.2015,76.9841 L88.2015,135.8491 Z M30.7495,0.1171 L0.0995,0.1171 L0.0995,213.3671 L34.3395,213.3671 C73.3295,213.3671 104.9395,181.7571 104.9395,142.7671 L104.9395,74.3171 C104.9395,33.3371 71.7195,0.1171 30.7495,0.1171 L30.7495,0.1171 Z" id="Fill-8"/></g></g></g></g></g><g id="Pet" transform="translate(2179.000000, 2231.000000) scale(1 1)"><defs><polygon id="petcat-3-path-1" points="0 0.793997108 261.239057 0.793997108 261.239057 411.6245 0 411.6245"/></defs><g id="Pet/Cat 3" stroke="none" stroke-width="1" fill="none" fill-rule="evenodd"><g id="Animal" transform="translate(403.000000, 502.000000)"><polygon id="Fill-1" fill="#FFD6CA" points="521.6938 84.2598 513.1558 4.9768 555.3408 56.5328"/><polygon id="Fill-2" fill="#FC7750" points="584.2314 45.4671 513.1564 4.9761 555.6534 56.3971"/><polygon id="Fill-3" fill="#FFD6CA" points="701.5959 -0.0001 631.8289 42.0569 674.3019 60.7719"/><polygon id="Fill-4" fill="#FC7750" points="674.5829 60.9979 698.8809 82.3479 701.5959 -0.0001"/><g id="Group-36" transform="translate(0.000000, 39.417000)"><path d="M611.1626,442.8631 L611.1626,442.8631 C548.4126,442.8631 497.5446,391.9941 497.5446,329.2451 L497.5446,114.5631 C497.5446,51.8141 548.4126,0.9451 611.1626,0.9451 L611.1626,0.9451 C673.9116,0.9451 724.7806,51.8141 724.7806,114.5631 L724.7806,329.2451 C724.7806,391.9941 673.9116,442.8631 611.1626,442.8631" id="Fill-5" fill="#FC7750"/><path d="M608.6172,443.6253 L174.5362,443.6253 L174.5362,443.6253 C174.5362,307.4793 284.9042,197.1103 421.0502,197.1103 L608.6172,197.1103 L608.6172,443.6253 Z" id="Fill-7" fill="#FC7750"/><polyline id="Stroke-9" stroke="#E93737" stroke-width="3" points="488.3721 80.5457 572.9721 120.6067 485.8741 156.0887"/><line x1="492.909" y1="114.1" x2="573.633" y2="120.859" id="Stroke-11" stroke="#E93737" stroke-width="3"/><polyline id="Stroke-13" stroke="#E93737" stroke-width="3" points="745.8184 84.961 657.9504 117.229 741.4934 160.422"/><line x1="738.275" y1="117.97" x2="657.271" y2="117.422" id="Stroke-15" stroke="#E93737" stroke-width="3"/><path d="M619.9546,171.7391 L604.9596,172.1481 C590.0536,172.5541 577.6406,160.8011 577.2336,145.8941 C576.8276,130.9881 588.5806,118.5751 603.4876,118.1681 L618.4816,117.7591 C633.3886,117.3521 645.8016,129.1061 646.2076,144.0121 C646.6146,158.9191 634.8606,171.3321 619.9546,171.7391" id="Fill-17" fill="#FCEBEC"/><polygon id="Fill-19" fill="#E93737" points="598.1924 118.0843 612.7794 131.5383 626.2524 117.8293"/><polyline id="Stroke-21" stroke="#E93737" stroke-width="3" stroke-linecap="round" points="596.5449 141.4847 613.2659 131.0247 625.5889 142.6927"/><g id="Group-25" transform="translate(0.000000, 32.000000)"><mask id="petcat-3-mask-2" fill="#ffffff"><use xlink:href="#petcat-3-path-1" fill="#ffffff"/></mask><g id="Clip-24"/><path d="M186.9585,365.5125 C186.9585,365.5125 -4.9925,329.9155 58.6715,141.1465 C58.6715,141.1465 90.0975,53.8595 201.8745,49.3085 C289.0295,45.7605 281.0735,-13.1125 172.3435,3.8595 C62.1495,21.0605 -10.5835,101.8685 1.2605,232.1565 C13.1045,362.4445 139.0545,405.2845 174.5365,411.6245 L186.9585,365.5125 Z" id="Fill-23" fill="#FC7750" mask="url(#petcat-3-mask-2)"/></g><path d="M719.4839,228.5203 L501.8239,228.5203 C495.6779,228.5203 490.6959,223.5393 490.6959,217.3933 L490.6959,207.2343 C490.6959,201.0893 495.6779,196.1073 501.8239,196.1073 L719.4839,196.1073 C725.6299,196.1073 730.6109,201.0893 730.6109,207.2343 L730.6109,217.3933 C730.6109,223.5393 725.6299,228.5203 719.4839,228.5203" id="Fill-26" fill="#E93737"/><path d="M711.4658,449.9661 L647.0518,449.9661 C624.2208,449.9661 605.7128,431.4581 605.7128,408.6271 L605.7128,405.5731 C605.7128,382.7421 624.2208,364.2341 647.0518,364.2341 L711.4658,364.2341 C734.2968,364.2341 752.8048,382.7421 752.8048,405.5731 L752.8048,408.6271 C752.8048,431.4581 734.2968,449.9661 711.4658,449.9661" id="Fill-28" fill="#FFD6CA"/><path d="M564.8032,448.0496 L500.3892,448.0496 C477.5582,448.0496 459.0502,429.5416 459.0502,406.7096 L459.0502,403.6556 C459.0502,380.8246 477.5582,362.3166 500.3892,362.3166 L564.8032,362.3166 C587.6342,362.3166 606.1422,380.8246 606.1422,403.6556 L606.1422,406.7096 C606.1422,429.5416 587.6342,448.0496 564.8032,448.0496" id="Fill-32" fill="#FFD6CA"/></g></g></g></g><g transform="translate(586.000000, 477.000000) scale(1 1)" id="Master/Character/Sitting On Chair"><defs><polygon id="mastercharactersitting-on-chair-path-1" points="0 280.06 382.454938 280.06 382.454938 519.503 0 519.503"/></defs><g id="Master/Character/Sitting On Chair" stroke="none" stroke-width="1" fill="none" fill-rule="evenodd"><g id="Lower Body/Sitting On Chair" transform="translate(876.000000, 1607.000000) scale(1 1)"><defs><polygon id="lower-bodysitting-on-chair4-path-1" points="0 280.06 382.454938 280.06 382.454938 519.503 0 519.503"/></defs><g id="Lower Body/Sitting On Chair/4" stroke="none" stroke-width="1" fill="none" fill-rule="evenodd"><g id="Group-68"><g id="Group-3" transform="translate(895.533816, 840.477907) rotate(-4.000000) translate(-895.533816, -840.477907) translate(704.033816, 580.477907)"><polygon id="Fill-2" fill="#56ACF6" points="90.9983376 401.8251 156.753338 473.6121 264.736338 472.4061 258.101338 443.4491 129.606338 390.9661"/><path d="M76.0960053,0.9638 C74.7380053,10.5148 88.0788376,204.960923 88.0788376,204.960923 C88.0788376,204.960923 121.781585,210.464215 189.187079,221.4708 L229.667856,0.9638 L76.0960053,0.9638 Z" id="Fill-34" fill="#f6cbc3"/><path d="M66.2981376,309.6757 C66.7611376,306.4187 85.3031376,199.4197 85.3031376,199.4197 C85.3031376,199.4197 82.6941376,194.3977 84.4551376,182.0237 C86.2151376,169.6497 95.0471376,158.9447 147.152138,171.0077 C199.258138,183.0707 201.588138,190.0457 200.847138,195.2567 C200.106138,200.4667 192.485138,212.0077 191.280138,220.4747 C190.075138,228.9417 182.962138,311.6517 182.962138,311.6517 L66.2981376,309.6757 Z" id="Fill-36" fill="#E4F9FF"/><path d="M65.3538376,305.3369 L49.7058376,390.8379 L120.300838,382.5059 L184.204838,414.0519 L281.627838,457.5109 L365.732838,454.6729 L363.718838,432.9509 C363.718838,432.9509 291.447838,388.4759 274.290838,376.3389 C257.132838,364.2009 251.280838,344.7449 251.280838,344.7449 L225.951838,302.0589 C225.951838,302.0589 198.906838,256.5119 175.147838,251.0879 C151.389838,245.6639 130.555838,248.4249 134.454838,258.3819 C138.352838,268.3399 148.495838,286.1359 148.495838,286.1359 L105.213838,274.2559 L78.2138376,303.1209 L71.1208376,309.8799 L73.4148376,315.1509" id="Fill-38" fill="#F4F0F1"/><path d="M71.2034376,318.3789 C71.2034376,318.3789 69.7594376,326.0259 93.7554376,335.5079 C117.751438,344.9899 143.249438,358.9689 147.939438,346.0709 C152.630438,333.1739 147.424438,319.5819 147.424438,319.5819 L168.776438,337.6109 C168.776438,337.6109 177.884438,356.3989 164.799438,373.0999 C151.715438,389.8009 121.926438,388.4199 121.926438,388.4199 L110.123438,376.0319 C110.123438,376.0319 72.2724376,351.0149 64.9164376,334.9759 C57.5594376,318.9369 71.2034376,318.3789 71.2034376,318.3789" id="Fill-40" fill="#F9C818"/><mask id="lower-bodysitting-on-chair4-mask-2" fill="#ffffff"><use xlink:href="#lower-bodysitting-on-chair4-path-1" fill="#ffffff"/></mask><g id="Clip-43"/><path d="M64.9085376,286.331 C64.9085376,286.331 31.3285376,352.55 33.9245376,351.751 C36.5205376,350.952 55.0565376,318.708 54.8405376,331.528 C54.6225376,344.35 45.0835376,360.107 45.8275376,374.428 C45.8275376,374.428 56.5795376,409.639 64.4535376,410.759 C72.3285376,411.879 110.743538,404.674 110.743538,404.674 C110.743538,404.674 129.508538,383.549 163.529538,409.4 C197.551538,435.252 241.914538,462.266 241.914538,462.266 C241.914538,462.266 235.982538,466.574 235.461538,470.931 C234.940538,475.286 237.320538,481.436 237.320538,481.436 L99.2415376,451.568 L27.7065376,395.481 L18.3445376,395.813 C18.3445376,395.813 9.35653757,400.523 7.50253757,415.896 C5.64853757,431.269 6.07053757,435.321 3.41853757,439.935 C0.765537573,444.548 -5.84346243,453.588 11.9545376,459.446 C29.7515376,465.305 163.510538,507.286 223.092538,516.427 C282.674538,525.566 345.363538,512.858 363.147538,497.756 C380.932538,482.653 384.418538,469.841 381.569538,457.126 C378.720538,444.411 372.410538,428.883 355.019538,430.531 C337.628538,432.181 327.611538,434.347 300.046538,423.377 C272.479538,412.407 261.270538,412.675 261.814538,419.137 C262.357538,425.598 282.696538,433.145 282.696538,433.145 C282.696538,433.145 310.131538,441.304 309.741538,444.041 C309.351538,446.778 308.217538,449.143 283.076538,445.435 C257.935538,441.726 228.038538,434.084 189.995538,407.129 C151.951538,380.174 140.828538,369.877 114.528538,370.977 C88.2285376,372.078 64.0025376,382.431 58.7035376,363.521 C53.4045376,344.612 73.1145376,321.413 73.4145376,315.151 C73.7135376,308.89 65.3535376,305.337 65.3535376,305.337 L65.4135376,280.06" id="Fill-42" fill="#15023F" mask="url(#lower-bodysitting-on-chair4-mask-2)"/><path d="M69.5901376,270.9257 C69.5901376,270.9257 68.5511376,272.1127 65.4131376,280.0607 C62.2761376,288.0077 59.6341376,312.9947 68.4221376,312.7857 C77.2111376,312.5757 85.2481376,295.8367 93.6731376,286.6347 C102.099138,277.4327 112.061138,275.3827 120.086138,280.5387 C128.111138,285.6947 160.487138,285.9557 160.487138,285.9557 C160.487138,285.9557 152.876138,270.6797 124.261138,268.4007 C124.261138,268.4007 104.491138,260.2807 91.3821376,277.8477 C78.2731376,295.4127 69.7971376,313.1857 70.0111376,297.6547 C70.1951376,284.2817 74.9591376,276.4167 74.3971376,271.6527 C73.8341376,266.8867 69.5901376,270.9257 69.5901376,270.9257" id="Fill-45" fill="#451989" mask="url(#lower-bodysitting-on-chair4-mask-2)"/><path d="M282.480838,380.5556 C282.480838,380.5556 267.059838,381.7456 223.004838,374.4696 C178.952838,367.1836 190.188838,347.7626 172.480838,341.1726 C154.770838,334.5936 152.876838,333.6376 144.174838,316.1276 C135.484838,298.6186 109.480838,312.2126 97.8038376,308.5216 C86.1198376,304.8196 123.980838,274.6106 123.980838,274.6106 C123.980838,274.6106 143.584838,270.7836 160.486838,285.9536 C165.242838,290.2266 174.417838,304.9756 177.261838,308.4806 C180.096838,311.9856 198.271838,320.0546 213.401838,342.0036 C228.529838,363.9626 252.276838,359.7046 256.826838,361.3016 C261.365838,362.9076 225.290838,304.5756 225.290838,304.5756 L225.751838,299.0556 C225.751838,299.0556 248.139838,337.5116 259.207838,354.7216 C270.283838,371.9326 280.058838,376.7066 281.812838,377.7946 C283.555838,378.8906 282.480838,380.5556 282.480838,380.5556" id="Fill-47" fill="#E263AB" mask="url(#lower-bodysitting-on-chair4-mask-2)"/><path d="M47.9388376,319.0849 C47.9388376,319.0849 14.8268376,382.1459 15.3848376,397.1789 C15.9428376,412.2129 48.6158376,404.8479 60.0978376,434.4289 C71.5808376,464.0099 90.8508376,477.9679 175.142838,498.8099 C259.433838,519.6499 333.662838,492.6929 334.367838,487.7349 C335.072838,482.7769 335.184838,473.0979 335.184838,473.0979 C335.184838,473.0979 210.898838,484.5049 162.362838,446.4079 C113.826838,408.3119 112.816838,397.6299 93.3428376,401.1829 C73.8688376,404.7359 63.0638376,397.7199 49.7138376,378.9599 C49.7138376,378.9599 48.8828376,369.9889 55.8918376,347.3809 C62.9018376,324.7719 60.4598376,291.6389 47.9388376,319.0849" id="Fill-49" fill="#FFF" mask="url(#lower-bodysitting-on-chair4-mask-2)"/><path d="M125.258138,271.3183 C125.258138,271.3183 115.626138,259.2483 133.734138,248.2053 C151.841138,237.1623 182.016138,248.4253 190.580138,258.8843 C190.580138,258.8843 173.504138,248.9983 151.350138,249.7383 C129.196138,250.4783 133.921138,257.1483 142.943138,273.5093 L123.237138,269.5723" id="Fill-51" fill="#451989" mask="url(#lower-bodysitting-on-chair4-mask-2)"/><path d="M153.778638,286.0683 C155.877638,289.9953 153.476638,295.3693 148.418638,298.0733 C143.359638,300.7783 137.556638,299.7873 135.458638,295.8613 C133.359638,291.9353 135.759638,286.5603 140.818638,283.8563 C145.877638,281.1523 151.679638,282.1423 153.778638,286.0683" id="Fill-53" fill="#1F003C" mask="url(#lower-bodysitting-on-chair4-mask-2)"/><path d="M138.640938,292.0087 C138.640938,292.0087 140.350938,284.0397 156.223938,279.8147 C172.095938,275.5887 201.986938,269.0347 216.679938,282.2187 C231.372938,295.4027 229.600938,300.7687 229.600938,300.7687 C229.600938,300.7687 218.723938,293.1707 210.148938,289.6457 C201.573938,286.1207 189.750938,284.1517 177.729938,285.6117 C165.707938,287.0707 153.607938,290.1037 149.674938,291.4167 C145.742938,292.7307 141.651938,300.2167 138.640938,292.0087" id="Fill-55" fill="#E8D9F3" mask="url(#lower-bodysitting-on-chair4-mask-2)"/><path d="M173.357738,304.8457 C175.456738,308.7727 173.056738,314.1467 167.997738,316.8507 C162.938738,319.5557 157.135738,318.5647 155.038738,314.6387 C152.939738,310.7127 155.338738,305.3377 160.397738,302.6337 C165.457738,299.9297 171.258738,300.9197 173.357738,304.8457" id="Fill-57" fill="#1F003C" mask="url(#lower-bodysitting-on-chair4-mask-2)"/><path d="M158.221038,310.7861 C158.221038,310.7861 159.908038,302.8141 175.197038,298.5061 C190.486038,294.1971 219.269038,287.4861 233.328038,300.5791 C247.388038,313.6731 245.655038,319.0451 245.655038,319.0451 C245.655038,319.0451 235.235038,311.5121 227.006038,308.0361 C218.779038,304.5601 207.419038,302.6571 195.850038,304.1811 C184.280038,305.7051 172.625038,308.8011 168.835038,310.1351 C165.046038,311.4691 161.072038,318.9721 158.221038,310.7861" id="Fill-59" fill="#E8D9F3" mask="url(#lower-bodysitting-on-chair4-mask-2)"/><path d="M195.223938,322.2109 C197.322938,326.1369 194.922938,331.5109 189.863938,334.2159 C184.804938,336.9199 179.002938,335.9289 176.904938,332.0029 C174.805938,328.0769 177.204938,322.7019 182.263938,319.9979 C187.323938,317.2939 193.124938,318.2839 195.223938,322.2109" id="Fill-61" fill="#1F003C" mask="url(#lower-bodysitting-on-chair4-mask-2)"/><path d="M180.039438,328.4824 C180.039438,328.4824 181.499438,321.3134 193.727438,317.2284 C205.954438,313.1444 236.445438,308.7414 247.441438,320.2704 C258.436438,331.7994 250.674438,338.6684 250.674438,338.6684 C250.674438,338.6684 241.307438,328.0074 234.810438,325.0134 C228.314438,322.0184 219.304438,320.4784 210.076438,322.0124 C200.849438,323.5474 191.529438,326.4934 188.495438,327.7434 C185.460438,328.9944 182.188438,335.7764 180.039438,328.4824" id="Fill-63" fill="#E8D9F3" mask="url(#lower-bodysitting-on-chair4-mask-2)"/></g><g id="Group-67" transform="translate(0.000000, 0.060000)"><g id="Group-44" transform="translate(651.000000, 860.000000)"/><path d="M3.1806,0.942 C3.1806,0.942 -3,188.499 30.4226,177.385 C30.4226,177.385 212.4216,195.445 256.8796,202.391 C279.246794,205.886094 322.024268,232.656066 455.898754,254.990308 C589.773239,277.324549 717.4166,300.348138 717.4166,309.322 C717.4166,327.384 746.5776,459.14 753.5236,620.3 C753.5236,620.3 795.2036,670.314 920.2406,625.857 C920.2406,625.857 929.3036,310.758 866.7846,188.499 C747.405502,30.118 369.004392,0.942 369.004392,0.942 L3.1806,0.942 Z" id="Fill-65" fill="#E93737"/><g id="Group-2" transform="translate(320.000000, 556.940000)"><path d="M43.3374466,13.506658 C43.3374466,23.152658 55.2845449,269.8996 55.2845449,269.8996 L152.715994,278.852034 L206.575491,-2.84217094e-14 L43.3374466,13.506658 Z" id="Fill-4" fill="#f6cbc3"/><g id="Group" transform="translate(0.000000, 210.544663)"><polygon id="Fill-1" fill="#56ACF6" points="74.7025449 113.497237 140.457545 185.285237 248.440545 184.079237 241.805545 155.122237 113.310545 102.639237"/><polygon id="Fill-3" fill="#56ACF6" points="74.9691449 226.772637 140.724145 298.560637 248.707145 297.354637 242.072145 268.397637 113.577145 215.914637"/><path d="M46.1420449,149.748137 C46.1420449,146.459137 49.4310449,37.9151369 49.4310449,37.9151369 C49.4310449,37.9151369 46.1420449,33.3101369 46.1420449,20.8111369 C46.1420449,8.31113686 53.3780449,-3.52886314 106.663045,1.07513686 C159.949045,5.68113686 163.238045,12.2591369 163.238045,17.5211369 C163.238045,22.7841369 157.318045,35.2831369 157.318045,43.8351369 C157.318045,52.3881369 161.922045,135.275137 161.922045,135.275137 L46.1420449,149.748137 Z" id="Fill-6" fill="#E4F9FF"/><path d="M44.5961449,145.585137 L41.1451449,232.438137 L109.864145,214.247137 L177.572145,236.481137 L280.145145,265.787137 L363.012145,251.134137 L357.959145,229.911137 C357.959145,229.911137 280.145145,196.058137 261.450145,186.457137 C242.754145,176.856137 234.220145,158.418137 234.220145,158.418137 L203.132145,119.725137 C203.132145,119.725137 169.943145,78.4391369 145.658145,76.4161369 C121.372145,74.3921369 101.134145,80.0591369 106.396145,89.3681369 C111.658145,98.6771369 124.205145,114.867137 124.205145,114.867137 L79.6831449,109.200137 L57.0161449,141.581137 L50.9451449,149.272137 L53.9581449,154.167137" id="Fill-8" fill="#F4F0F1"/><path d="M52.2250449,157.673937 C52.2250449,157.673937 51.8710449,165.447937 76.9630449,171.455937 C102.056045,177.464937 129.269045,187.712937 132.096045,174.282937 C134.923045,160.854937 127.855045,148.130937 127.855045,148.130937 L151.534045,162.974937 C151.534045,162.974937 163.196045,180.291937 152.594045,198.668937 C141.992045,217.046937 112.305045,219.873937 112.305045,219.873937 L98.8750449,209.271937 C98.8750449,209.271937 57.8790449,189.833937 48.3370449,174.989937 C38.7950449,160.147937 52.2250449,157.673937 52.2250449,157.673937" id="Fill-10" fill="#F9C818"/><path d="M41.4789449,126.831237 C41.4789449,126.831237 17.5589449,197.119237 20.0169449,195.963237 C22.4749449,194.807237 36.2859449,160.272237 37.8749449,172.996237 C39.4659449,185.720237 32.2419449,202.664237 34.9949449,216.737237 C34.9949449,216.737237 50.5969449,250.083237 58.5509449,250.083237 C66.5049449,250.083237 103.522945,237.540237 103.522945,237.540237 C103.522945,237.540237 119.124945,213.983237 156.448945,234.787237 C193.771945,255.590237 241.496945,276.087237 241.496945,276.087237 C241.496945,276.087237 236.230945,281.187237 236.328945,285.573237 C236.425945,289.960237 239.647945,295.714237 239.647945,295.714237 L98.7389449,285.587237 L20.0179449,240.134237 L10.7959449,241.780237 C10.7959449,241.780237 2.56194485,247.709237 2.89094485,263.189237 C3.21994485,278.670237 4.20794485,282.623237 2.23194485,287.563237 C0.25594485,292.504237 -5.01405515,302.386237 13.4309449,305.679237 C31.8749449,308.973237 170.212945,331.699237 230.488945,332.358237 C290.763945,333.018237 351.039945,311.607237 366.519945,294.151237 C381.999945,276.694237 383.647945,263.519237 379.036945,251.332237 C374.424945,239.145237 365.991945,224.660237 349.005945,228.741237 C332.019945,232.823237 322.408945,236.378237 293.572945,229.399237 C264.736945,222.421237 253.675945,224.265237 255.123945,230.585237 C256.572945,236.905237 277.771945,241.514237 277.771945,241.514237 C277.771945,241.514237 306.081945,245.727237 306.081945,248.492237 C306.081945,251.257237 305.290945,253.759237 279.877945,253.627237 C254.465945,253.495237 223.790945,250.141237 182.330945,228.811237 C140.869945,207.481237 128.407945,198.854237 102.524945,203.647237 C76.6419449,208.440237 54.1149449,222.101237 46.2069449,204.127237 C38.2969449,186.152237 54.5429449,160.409237 53.9579449,154.167237 C53.3739449,147.926237 44.5959449,145.585237 44.5959449,145.585237 L41.0959449,120.553237" id="Fill-12" fill="#15023F"/><path d="M43.9447449,110.920037 C43.9447449,110.920037 43.0837449,112.243037 41.0957449,120.553037 C39.1087449,128.862037 40.0117449,153.973037 48.6837449,152.527037 C57.3547449,151.083037 62.9557449,133.379037 70.0007449,123.082037 C77.0457449,112.785037 86.6207449,109.353037 95.2917449,113.327037 C103.962745,117.301037 136.052745,113.001037 136.052745,113.001037 C136.052745,113.001037 126.366745,98.9480369 97.7157449,100.722037 C97.7157449,100.722037 76.9997449,95.4680369 66.4947449,114.704037 C55.9887449,133.941037 50.1007449,152.731037 48.1257449,137.325037 C46.4247449,124.059037 50.0337449,115.602037 48.8057449,110.963037 C47.5787449,106.324037 43.9447449,110.920037 43.9447449,110.920037" id="Fill-14" fill="#451989"/><path d="M270.152745,189.478637 C270.152745,189.478637 255.051745,192.829637 210.412745,191.829637 C165.772745,190.819637 174.162745,170.008637 155.702745,165.978637 C137.242745,161.958637 135.232745,161.279637 124.152745,145.168637 C113.082745,129.058637 89.2527449,146.178637 77.1727449,144.168637 C65.0827449,142.148637 98.3127449,106.909637 98.3127449,106.909637 C98.3127449,106.909637 117.182745,100.359637 136.051745,112.999637 C141.362745,116.558637 152.522745,129.869637 155.832745,132.938637 C159.132745,136.008637 178.261745,141.438637 196.332745,161.039637 C214.402745,180.648637 237.312745,173.088637 242.042745,174.029637 C246.761745,174.978637 202.832745,122.308637 202.832745,122.308637 L202.511745,116.779637 C202.511745,116.779637 230.091745,151.699637 243.472745,167.178637 C256.862745,182.659637 267.212745,186.008637 269.102745,186.838637 C270.982745,187.678637 270.152745,189.478637 270.152745,189.478637" id="Fill-16" fill="#E263AB"/><path d="M29.2904449,161.648537 C29.2904449,161.648537 5.38944485,228.743537 8.05944485,243.548537 C10.7284449,258.354537 42.0384449,246.461537 57.5714449,274.130537 C73.1054449,301.799537 94.1494449,312.905537 180.536445,321.669537 C266.922445,330.432537 336.615445,293.291537 336.615445,288.283537 C336.615445,283.275537 335.363445,273.676537 335.363445,273.676537 C335.363445,273.676537 213.922445,302.472537 160.504445,271.589537 C107.087445,240.708537 104.583445,230.275537 85.8044449,236.535537 C67.0234449,242.794537 55.3394449,237.370537 39.4804449,220.676537 C39.4804449,220.676537 37.3944449,211.913537 41.1494449,188.543537 C44.9054449,165.172537 37.8224449,132.712537 29.2904449,161.648537" id="Fill-18" fill="#FFF"/><path d="M99.1137449,103.470837 C99.1137449,103.470837 87.8777449,92.8768369 104.249745,79.3938369 C120.621745,65.9108369 152.081745,72.8128369 162.033745,81.9618369 C162.033745,81.9618369 143.734745,74.5778369 121.905745,78.4308369 C100.076745,82.2838369 105.694745,88.2218369 116.929745,103.149837 L96.8667449,102.025837" id="Fill-20" fill="#451989"/><path d="M129.426245,114.057737 C132.057245,117.648737 130.438245,123.307737 125.810245,126.697737 C121.183245,130.086737 115.299245,129.923737 112.668245,126.331737 C110.037245,122.741737 111.656245,117.081737 116.284245,113.692737 C120.912245,110.302737 126.796245,110.465737 129.426245,114.057737" id="Fill-22" fill="#1F003C"/><path d="M115.276745,122.070437 C115.276745,122.070437 115.846745,113.939437 130.965745,107.520437 C146.086745,101.102437 174.755745,90.4044369 191.159745,101.387437 C207.561745,112.371437 206.563745,117.933437 206.563745,117.933437 C206.563745,117.933437 194.724745,111.942437 185.738745,109.660437 C176.753745,107.378437 164.771745,107.092437 153.075745,110.231437 C141.379745,113.369437 129.825745,118.076437 126.116745,119.930437 C122.408745,121.784437 119.413745,129.772437 115.276745,122.070437" id="Fill-24" fill="#E8D9F3"/><path d="M151.455545,129.890737 C154.085545,133.481737 152.466545,139.140737 147.839545,142.530737 C143.211545,145.919737 137.327545,145.756737 134.696545,142.164737 C132.066545,138.574737 133.684545,132.914737 138.312545,129.525737 C142.940545,126.135737 148.824545,126.298737 151.455545,129.890737" id="Fill-26" fill="#1F003C"/><path d="M137.305145,137.903437 C137.305145,137.903437 137.854145,129.772437 152.383145,123.354437 C166.912145,116.935437 194.464145,106.237437 210.227145,117.220437 C225.991145,128.204437 225.031145,133.766437 225.031145,133.766437 C225.031145,133.766437 213.654145,127.775437 205.019145,125.493437 C196.383145,123.211437 184.869145,122.925437 173.629145,126.064437 C162.389145,129.202437 151.286145,133.909437 147.723145,135.763437 C144.159145,137.617437 141.281145,145.605437 137.305145,137.903437" id="Fill-28" fill="#E8D9F3"/><path d="M175.549245,144.002137 C178.179245,147.594137 176.560245,153.253137 171.933245,156.643137 C167.305245,160.032137 161.421245,159.868137 158.790245,156.277137 C156.160245,152.687137 157.778245,147.027137 162.406245,143.638137 C167.034245,140.248137 172.918245,140.411137 175.549245,144.002137" id="Fill-30" fill="#1F003C"/><path d="M161.398845,152.349737 C161.398845,152.349737 161.834845,145.046737 173.364845,139.281737 C184.894845,133.515737 214.462845,124.862737 226.972845,134.728737 C239.481845,144.593737 232.763845,152.487737 232.763845,152.487737 C232.763845,152.487737 221.988845,143.252737 215.135845,141.203737 C208.282845,139.153737 199.144845,138.896737 190.224845,141.715737 C181.305845,144.534737 172.494845,148.761737 169.666845,150.427737 C166.837845,152.093737 164.553845,159.268737 161.398845,152.349737" id="Fill-32" fill="#E8D9F3"/></g></g><path d="M99.0982643,254.988308 C232.97275,277.322549 360.616111,300.346138 360.616111,309.32 C360.616111,327.382 349.777111,459.138 356.723111,620.298 C356.723111,620.298 398.403111,670.312 523.440111,625.855 C523.440111,625.855 572.503111,310.756 509.984111,188.497 C390.605013,30.116 12.2039025,0.94 12.2039025,0.94 C-19.1161799,155.416044 9.84860739,240.098814 99.0982643,254.988308 Z" id="Fill-65-Copy" fill="#E93737"/></g></g><path d="M403.874884,92.6580824 C488.951099,124.440505 532.921132,183.135188 535.436003,268.36041 L535.499522,270.951113 L530.500478,271.048887 C528.863603,187.357546 487.024505,129.899091 404.634205,98.2918018 L402.125116,97.3419176 L403.874884,92.6580824 Z" id="Path-9" fill="#000" fill-rule="nonzero"/></g></g><g id="Upper Body" transform="translate(333.000000, 655.000000) scale(1 1)"><defs><polygon id="upper-bodywith-phone-path-1" points="7.50962456e-05 0.5155 704.395 0.5155 704.395 617 7.50962456e-05 617"/></defs><g id="Upper Body/With Phone" stroke="none" stroke-width="1" fill="none" fill-rule="evenodd"><path d="M724.954254,220 C724.954254,220 721.26343,301.153386 673.924004,329.799638 C630.972611,355.790794 721.968632,506.610475 819.857852,497.613536 C873.442212,492.688212 886,346.158072 886,346.158072 C886,346.158072 842.733964,337.796917 858.715877,271.819367 L724.954254,220 Z" id="Neck" fill="#f6cbc3"/><path d="M803.337113,302.515641 C739.876612,294.840687 694.077698,253.11575 687.664652,183.898064 C669.216286,186.83496 664.86504,138.764927 670.003065,123.322958 C675.146083,107.858975 691.933027,116.900812 691.933027,116.900812 C692.862251,114.457234 693.652358,111.898916 694.303348,109.225857 C722.02532,-4.48555283 799.669805,0.0243586862 799.669805,0.0243586862 C942.344355,7.45715716 908.914243,153.120195 900.762895,191.763142 C892.610548,230.410091 864.683894,309.927426 803.337113,302.515641 Z" id="Head" fill="#f6cbc3"/><g id="Group-20" transform="translate(427.000000, 325.000000)"><path d="M144.5029,334.2442 L108.4849,671.3632 C108.4849,671.3632 364.9269,717.4652 586.7909,645.4312 L599.7569,348.6512 C599.7569,348.6512 448.005567,343.848867 144.5029,334.2442 Z" id="Fill-1" fill="#000"/><g id="Group-3" transform="translate(0.000000, 0.485000)"><mask id="upper-bodywith-phone-mask-2" fill="#ffffff"><use xlink:href="#upper-bodywith-phone-path-1" fill="#ffffff"/></mask><g id="Clip-2"/><path d="M110.2242,571.7275 C110.2242,571.7275 -12.9758,494.9075 1.1242,370.3175 C15.2242,245.7275 67.7462,75.6355 157.9852,40.6815 C248.2242,5.7275 251.0592,0.5155 251.0592,0.5155 C251.0592,0.5155 287.2242,47.7275 350.2242,50.7275 C413.2242,53.7275 454.2242,18.7275 454.2242,18.7275 C454.2242,18.7275 577.9532,48.1985 613.5892,103.9625 C649.2242,159.7275 740.2242,408.7275 689.2242,487.7275 C638.2242,566.7275 539.5942,589.7465 539.5942,589.7465 C539.5942,589.7465 238.2242,661.7275 110.2242,571.7275" id="Fill-1" fill="#000" mask="url(#upper-bodywith-phone-mask-2)"/></g><path d="M287.2242,342.9967 L286.3152,262.9967 C286.3152,262.9967 283.5882,245.9967 309.9522,244.9967 C336.3152,243.9967 407.2242,242.9967 407.2242,242.9967 C407.2242,242.9967 424.4972,238.9967 425.4062,263.9967 C426.3152,288.9967 427.2242,374.9967 427.2242,374.9967 L318.1332,405.9967 L277.2242,403.9967 L287.2242,342.9967 Z" id="Fill-4" fill="#204EB2"/><path d="M277.8081,403.525 L318.0761,405.493 L426.7201,374.62 C426.6521,368.343 425.7741,287.874 424.9071,264.015 C424.5891,255.297 422.2501,249.21 417.9541,245.921 C413.1021,242.205 407.3951,243.469 407.3371,243.484 L407.2311,243.497 C406.5221,243.506 336.0261,244.508 309.9711,245.497 C300.3941,245.86 293.6301,248.364 289.8671,252.938 C286.0251,257.609 286.8001,262.866 286.8081,262.919 L287.7251,343.035 L287.7181,343.078 L277.8081,403.525 Z M318.1911,406.5 L318.1091,406.496 L276.6401,404.468 L286.7241,342.959 L285.8151,263.003 C285.7841,262.844 284.9591,257.346 289.0811,252.32 C293.0311,247.504 300.0461,244.872 309.9331,244.497 C335.7041,243.519 404.9121,242.53 407.1661,242.498 C407.8251,242.356 413.5421,241.282 418.5621,245.127 C423.1071,248.606 425.5781,254.949 425.9061,263.978 C426.8051,288.699 427.7151,374.131 427.7241,374.992 L427.7281,375.374 L427.3611,375.477 L318.1911,406.5 Z" id="Fill-6" fill="#000"/><path d="M286.2837,265.9889 L286.2237,252.2129 C286.2237,252.2129 286.2237,241.2129 301.2237,240.2129 C316.2237,239.2129 405.2237,237.2129 405.2237,237.2129 C405.2237,237.2129 417.2237,236.2129 422.2237,243.2129 C427.2237,250.2129 425.6367,267.2299 425.6367,267.2299 C425.6367,267.2299 425.0797,243.3829 405.1527,243.7979 C385.2237,244.2129 307.6987,245.8149 307.6987,245.8149 C307.6987,245.8149 287.3437,243.7639 286.2837,265.9889" id="Fill-8" fill="#56ACF6"/><path d="M405.6617,243.2926 C419.2487,243.2926 423.8297,254.5696 425.3677,261.6416 C425.4017,256.0966 424.8827,247.7946 421.8177,243.5036 C417.0377,236.8126 405.3817,237.6986 405.2657,237.7106 C404.3457,237.7316 316.0747,239.7236 301.2577,240.7116 C295.2867,241.1086 290.8817,243.2356 288.5177,246.8606 C286.7447,249.5796 286.7237,252.1866 286.7237,252.2126 L286.7557,259.5216 C287.8327,255.5776 289.7627,252.3926 292.5267,250.0106 C298.9197,244.4986 307.3907,245.2816 307.7487,245.3176 C307.6887,245.3146 385.2137,243.7126 405.1417,243.2976 C405.3157,243.2936 405.4907,243.2926 405.6617,243.2926 M426.1347,267.2766 L425.1367,267.2416 C425.1347,267.1836 424.9657,261.2876 422.3987,255.5356 C418.9967,247.9106 413.2067,244.1186 405.1627,244.2976 C385.2347,244.7126 307.7087,246.3146 307.7087,246.3146 C307.5667,246.3036 299.2327,245.5446 293.1717,250.7736 C289.2537,254.1556 287.1037,259.2826 286.7837,266.0126 L285.7837,265.9906 L285.7237,252.2146 C285.7237,252.0986 285.9007,240.7326 301.1907,239.7136 C316.0307,238.7246 404.3227,236.7326 405.2127,236.7126 C405.6847,236.6726 417.5237,235.7726 422.6307,242.9216 C427.6817,249.9916 426.1997,266.5736 426.1347,267.2766" id="Fill-10" fill="#000"/><path d="M287.4356,310.9723 C287.4356,310.9723 273.0126,320.2443 268.3766,325.9103 C263.7406,331.5763 267.8616,332.6073 257.5596,343.4243 C247.2576,354.2423 228.7136,381.5423 261.1646,423.2663 C293.6176,464.9903 304.4346,461.3833 317.8276,454.1723 C331.2196,446.9603 332.7656,441.8103 358.0056,439.2343 C383.2456,436.6593 407.4556,411.9333 406.9406,405.7523 L406.4256,399.5713 C406.4256,399.5713 429.6046,390.8143 428.0606,381.0273 C426.5146,371.2403 419.8186,372.2703 419.8186,372.2703 C419.8186,372.2703 424.4546,367.6343 420.8486,359.3923 C417.2426,351.1513 400.2446,352.6963 380.6696,355.2723 C361.0966,357.8473 310.6156,368.1493 307.5246,366.0893 C304.4346,364.0293 305.4646,360.9383 317.3116,359.3923 C329.1596,357.8473 377.0646,357.3323 377.0646,343.9393 C377.0646,330.5463 362.6416,327.9713 334.8256,328.4863 C307.0096,329.0013 301.8586,327.4553 295.1626,330.0323 L288.4656,332.6073 L287.4356,310.9723 Z" id="Fill-12" fill="#f6cbc3"/><path d="M420.2242,372.2125 C420.2242,372.2125 421.7042,371.1445 410.6812,375.3535 C406.6672,376.8855 401.0072,378.4845 393.0332,379.9965 C363.1562,385.6625 316.2822,395.9655 301.8592,398.0255 C287.4352,400.0865 299.2832,403.1765 332.2502,396.4805 C365.2172,389.7835 404.4622,380.8005 406.2242,380.2125 C409.2242,379.2125 418.2242,376.2125 420.2242,372.2125" id="Fill-14" fill="#000"/><path d="M395.6079,402.6618 C395.6079,402.6618 371.2239,411.2128 359.2239,414.2128 C346.4829,417.3978 336.8859,421.7208 334.3109,417.5998 C331.7349,413.4788 328.6439,412.4488 328.6439,412.4488 L324.5239,417.0848 C324.5239,417.0848 325.2239,422.2128 322.9779,422.7508 C318.9709,423.7118 311.1299,425.3268 311.1299,425.3268 C311.1299,425.3268 311.2239,428.2128 335.2239,423.2128 C341.1789,421.9728 352.2239,420.2128 359.2239,418.2128 C365.6629,416.3728 388.9119,410.3888 392.0029,407.8128 C395.0929,405.2368 395.6079,402.6618 395.6079,402.6618" id="Fill-16" fill="#000"/><path d="M319.8872,400.0866 C319.8872,400.0866 319.5072,420.8296 325.3632,420.5026 C331.2202,420.1756 333.2802,420.1756 334.3102,418.6296 C335.3412,417.0846 332.7652,411.9336 332.7652,406.2676 C332.7652,400.6016 332.7652,398.0256 328.1292,398.5406 C323.4932,399.0566 320.4022,399.0566 319.8872,400.0866" id="Fill-18" fill="#F9C818"/></g></g></g><g id="Expression" transform="translate(1055.000000, 738.000000) scale(1 1)" fill="#000"><defs><polygon id="expressionsmile-path-1" points="0.0345903013 0.044 67.6399607 0.044 67.6399607 19.4316 0.0345903013 19.4316"/></defs><g id="Expression/Smile" stroke="none" stroke-width="1" fill="none" fill-rule="evenodd"><g id="Group-124" transform="translate(25.000000, 52.000000)" fill="#000" fill-rule="nonzero"><path d="M98.9388073,0.515726772 L102.747593,1.73767323 L102.375135,2.93095324 C102.075892,3.9043293 101.742122,5.01790967 101.382468,6.25291663 C100.354215,9.78380887 99.3257634,13.5761133 98.3662837,17.478955 C97.2996742,21.8175645 96.3854385,26.0250163 95.6702376,29.9976992 L95.4631649,31.1740325 C93.7257688,41.2776329 93.4803733,48.9926374 95.0328764,53.1417647 L95.1244408,53.3771728 C104.002358,75.340079 91.9464166,86.4779502 66.6424816,78.6786942 L65.8716485,78.4365483 L67.0907515,74.6268517 C89.8846425,81.9208968 99.0260452,73.7026714 91.4159925,54.8763096 C89.3210345,49.6942966 89.6433125,40.8993486 91.7335247,29.288974 C92.4647551,25.2272527 93.3964651,20.9393815 94.4819426,16.5240234 C95.3476055,13.0027971 96.2678852,9.57278889 97.1943734,6.33814281 L97.5420029,5.13451153 C97.7507758,4.41761123 97.9510908,3.74056192 98.1413397,3.10683734 L98.6297394,1.50244969 L98.9388073,0.515726772 Z" id="Stroke-114"/><path d="M0.1850015,153.534088 L2.1419985,150.045512 L2.85620174,150.434727 L3.51128674,150.782909 C4.50308988,151.305335 5.6321651,151.880908 6.88714027,152.498006 L7.43266178,152.764985 C11.6537624,154.821142 16.3218862,156.878362 21.3004212,158.797989 C32.7483158,163.212076 44.0600582,166.224884 54.584272,167.202241 C59.3535856,167.645156 63.8735301,167.656119 68.1063644,167.201856 L68.9490919,167.10479 L69.4379081,171.07481 C64.6629697,171.662733 59.5745075,171.682884 54.2143935,171.185103 C43.2765951,170.169337 31.6251616,167.066055 19.8613669,162.530163 C14.7706849,160.567294 9.99959664,158.464698 5.68097489,156.361037 L4.04785364,155.55429 C3.35348222,155.206284 2.70158001,154.872883 2.09423579,154.556252 L0.962732129,153.958187 L0.1850015,153.534088 Z" id="Stroke-122"/></g><g id="Group-16" transform="translate(27.000000, 30.000000)"><path d="M71.0371,131.9951 C52.1661,131.9951 37.9381,123.3511 37.2701,122.9381 C35.8611,122.0681 35.4251,120.2191 36.2961,118.8091 C37.1651,117.4011 39.0141,116.9631 40.4241,117.8341 C40.7061,118.0061 57.4191,128.0481 77.5681,125.6031 C79.2011,125.4051 80.7071,126.5751 80.9081,128.2201 C81.1081,129.8641 79.9361,131.3601 78.2911,131.5591 C75.8141,131.8611 73.3881,131.9951 71.0371,131.9951" id="Fill-3" fill="#000"/><path d="M78.8252,103.1664 C74.7822,103.1664 69.7382,102.3754 63.4432,100.3614 L64.6612,96.5514 C76.3852,100.3024 85.0452,99.9964 89.0462,95.6874 C92.4492,92.0204 92.4282,85.3134 88.9872,76.8014 C86.6522,71.0264 87.2292,60.0734 90.7022,44.2454 C93.2432,32.6624 96.4772,22.5414 96.5102,22.4404 L100.3182,23.6624 C96.8112,34.5954 88.6062,65.1874 92.6952,75.3024 C97.8932,88.1604 95.1742,94.9644 91.9772,98.4084 C89.6972,100.8664 85.7182,103.1664 78.8252,103.1664" id="Fill-5" fill="#000"/><g id="Group-9" transform="translate(0.000000, 0.956000)"><mask id="expressionsmile-mask-2" fill="#ffffff"><use xlink:href="#expressionsmile-path-1" fill="#ffffff"/></mask><g id="Clip-8"/><path d="M62.1387,19.4316 C61.5377,19.4316 60.9257,19.3316 60.3267,19.1226 C54.4907,17.0866 37.6337,11.6746 29.8217,11.0966 C22.4657,10.5516 11.2427,14.1856 7.5387,15.6326 C4.7097,16.7366 1.5207,15.3416 0.4147,12.5146 C-0.6923,9.6866 0.7007,6.4986 3.5277,5.3896 C4.1637,5.1406 19.2597,-0.7164 30.6337,0.1266 C41.4887,0.9306 63.0387,8.4186 63.9507,8.7376 C66.8187,9.7386 68.3317,12.8746 67.3317,15.7426 C66.5397,18.0106 64.4127,19.4316 62.1387,19.4316" id="Fill-7" fill="#000" mask="url(#expressionsmile-mask-2)"/></g><path d="M154.6772,39.1645 C153.5752,39.1645 152.4632,38.8265 151.5062,38.1245 C148.4472,35.8845 139.0022,29.8175 132.1372,28.6695 C124.8122,27.4455 107.9602,28.8295 102.0842,29.4645 C99.1372,29.7795 96.4882,27.6525 96.1692,24.7055 C95.8492,21.7575 97.9802,19.1085 100.9272,18.7895 C101.8492,18.6895 123.6282,16.3615 133.9072,18.0795 C144.7152,19.8855 157.3282,29.0775 157.8602,29.4685 C160.2492,31.2235 160.7642,34.5835 159.0092,36.9735 C157.9572,38.4055 156.3282,39.1645 154.6772,39.1645" id="Fill-10" fill="#000"/></g><g id="Group-19" transform="translate(63.000000, 68.000000)" fill="#000"><path d="M12.5215,6.6586 C12.5215,9.9056 9.8885,12.5386 6.6415,12.5386 C3.3945,12.5386 0.7615,9.9056 0.7615,6.6586 C0.7615,3.4106 3.3945,0.7786 6.6415,0.7786 C9.8885,0.7786 12.5215,3.4106 12.5215,6.6586" id="Fill-10"/><path d="M87.7615,13.3383 C87.7615,16.5863 85.1285,19.2183 81.8815,19.2183 C78.6345,19.2183 76.0015,16.5863 76.0015,13.3383 C76.0015,10.0913 78.6345,7.4583 81.8815,7.4583 C85.1285,7.4583 87.7615,10.0913 87.7615,13.3383" id="Fill-12"/></g></g></g><g id="Hairstyle" transform="translate(564.000000, 411.000000) scale(1 1)"><g id="Hairstyle/Wavy Long Hair in the Wind" stroke="none" stroke-width="1" fill="none" fill-rule="evenodd"><g id="Group-3" transform="translate(-1.000000, 15.000000)" fill="#0f0f0f"><path d="M275.7374,31.2866 C336.7374,79.2866 395.7374,176.2866 499.7374,161.2866 C603.7374,146.2866 739.9724,207.7106 678.3544,377.4986 C678.3544,377.4986 680.7374,285.2866 628.7374,253.2866 C576.7374,221.2866 559.7374,390.2866 460.7374,347.2866 C460.7374,347.2866 444.7374,338.2866 440.7374,352.2866 C436.7374,366.2866 439.4774,403.5876 450.1074,410.9366 C450.1074,410.9366 452.7374,413.2866 457.7374,411.2866 C457.7374,411.2866 460.7274,458.7656 488.7324,488.0256 C488.7324,488.0256 481.7324,511.2906 479.2354,514.7886 L477.4434,515.1986 C477.4434,515.1986 381.7374,589.2866 277.7374,505.2866 C173.7374,421.2866 104.7374,485.2866 20.7374,407.2866 C-63.2626,329.2866 138.4924,94.0216 86.7374,38.2866 C148.7374,-28.7134 245.8634,7.7796 275.7374,31.2866 Z" id="Fill-1"/></g></g></g><g id="Accessories" transform="translate(1008.000000, 771.000000) scale(1 1)" fill="#000"><g id="Accessories/Glasses and Earring" stroke="none" stroke-width="1" fill="none" fill-rule="evenodd"><g id="Group-136" transform="translate(21.000000, 0.000000)" fill="#000" fill-rule="nonzero"><path d="M85.2331,-3.5185 C64.1379939,-3.5185 47.0361,13.5830433 47.0361,34.6775 C47.0361,55.7726319 64.1376692,72.8735 85.2331,72.8735 C106.328381,72.8735 123.4291,55.7727814 123.4291,34.6775 C123.4291,13.5828939 106.328057,-3.5185 85.2331,-3.5185 Z M85.2331,5.4815 C101.357453,5.4815 114.4291,18.5534154 114.4291,34.6775 C114.4291,50.8022186 101.357819,63.8735 85.2331,63.8735 C69.1081493,63.8735 56.0361,50.8019866 56.0361,34.6775 C56.0361,18.5536474 69.1085154,5.4815 85.2331,5.4815 Z" id="Stroke-128"/><path d="M179.1536,5.5889 C158.058169,5.5889 140.9566,22.6897681 140.9566,43.7849 C140.9566,64.8800319 158.058169,81.9809 179.1536,81.9809 C200.248881,81.9809 217.3496,64.8801814 217.3496,43.7849 C217.3496,22.6896186 200.248881,5.5889 179.1536,5.5889 Z M179.1536,14.5889 C195.278319,14.5889 208.3496,27.6601814 208.3496,43.7849 C208.3496,59.9096186 195.278319,72.9809 179.1536,72.9809 C163.028649,72.9809 149.9566,59.9093866 149.9566,43.7849 C149.9566,27.6604134 163.028649,14.5889 179.1536,14.5889 Z" id="Stroke-130"/><path d="M-3.64184511,7.30994196 C-2.74598214,5.07028454 -0.252551778,3.94709164 2.00319591,4.726899 L2.20755804,4.80305489 L52.207558,24.8030549 C54.5150839,25.7260652 55.6374554,28.3449322 54.7144451,30.652458 C53.8185821,32.8921155 51.3251518,34.0153084 49.0694041,33.235501 L48.865042,33.1593451 L-1.13495804,13.1593451 C-3.44248387,12.2363348 -4.56485544,9.61746778 -3.64184511,7.30994196 Z" id="Stroke-132"/><path d="M114.843511,36.5654718 C115.110544,34.1660118 117.218034,32.4181733 119.60255,32.5722482 L119.813628,32.5908106 L146.033628,35.5088106 C148.503661,35.7836983 150.283177,38.0088957 150.008289,40.4789282 C149.741256,42.8783882 147.633766,44.6262267 145.24925,44.4721518 L145.038172,44.4535894 L118.818172,41.5355894 C116.348139,41.2607017 114.568623,39.0355043 114.843511,36.5654718 Z" id="Stroke-134"/></g><g id="Group-5" transform="translate(1.000000, 55.000000)" fill="#FFF"><path d="M21.5,11 C21.5,16.799 16.8,21.5 11,21.5 C5.201,21.5 0.5,16.799 0.5,11 C0.5,5.2 5.201,0.5 11,0.5 C16.8,0.5 21.5,5.2 21.5,11" id="Fill-1"/></g></g></g><g id="Facial Hair" transform="translate(1018.000000, 772.000000) scale(1 1)"><g id="Facial Hair/None" stroke="none" stroke-width="1" fill="none" fill-rule="evenodd" fill-opacity="0"/></g></g></g></g></svg>