<svg viewBox="164.25 224.43965517241395 1861.5000000000005 930.6034482758622" xmlns="http://www.w3.org/2000/svg" overflow="visible" xmlns:xlink="http://www.w3.org/1999/xlink" width="1861.5000000000005px" height="930.6034482758622px"><g id="Master/Scene/Peaceful Place" stroke="none" stroke-width="1" fill="none" fill-rule="evenodd"><g id="Background" opacity=".754" transform="translate(250.500000, 148.000000) scale(0.8802083333333334 0.8796296296296297)"><g id="Background/Rocks" stroke="none" stroke-width="1" fill="none" fill-rule="evenodd"><path d="M1259.24026,889.164029 C1260.25345,894.677537 1266.56217,902.297825 1259.24122,905.49541 C1240.82984,916.764188 1218.60289,918.726103 1197.44291,919.507991 C1184.72272,916.344943 1110.34733,918.359623 1111.7514,906.598688 C1115.1857,856.049403 1153.53834,817.29751 1195.31184,792.99567 C1212.49105,785.240111 1254.18387,872.307872 1259.24026,889.164029 Z M1191.02546,780.880242 C1194.76635,784.435056 1194.73761,784.726121 1190.25908,787.420145 C1173.11327,797.73149 1157.14959,809.541106 1143.2034,823.937863 C1121.33382,846.128489 1106.74483,874.075528 1104.44761,905.414193 C1103.95329,908.947057 1102.843,909.87274 1099.73438,909.388904 C1087.32861,906.210089 991.999667,896.131596 1000.23537,882.377091 C1012.97451,777.886564 1096.08066,688.975186 1191.02546,780.880242 Z M1325.73178,768.5977 C1314.03294,812.029513 1304.82584,859.557531 1272.88821,893.347392 C1267.30163,901.096141 1261.02115,867.65528 1257.20469,863.648955 C1245.63202,837.394618 1230.4178,813.372923 1211.8889,791.457656 C1207.40913,786.160511 1207.41869,786.105053 1213.71828,783.193535 C1237.41034,771.248185 1304.2323,755.160734 1325.73178,768.5977 Z M1235.84469,207.988261 C1233.0445,233.053919 1242.0845,253.393096 1261.196,269.552112 C1292.17453,297.243167 1337.12146,295.055974 1368.97044,270.292658 C1373.01112,267.915066 1373.02742,267.676828 1376.16314,271.067648 C1391.83599,288.009307 1409.42612,302.894852 1426.80631,317.990888 C1430.37438,321.088934 1432.01941,324.226208 1432.02517,329.012966 C1434.1639,364.538116 1431.17006,399.7858 1426.76797,435.021046 C1424.26975,472.976411 1418.76234,510.366321 1407.24713,546.762138 C1393.21739,588.465201 1370.27132,626.422479 1357.37374,668.586709 C1347.51889,696.431805 1337.19623,724.11712 1330.00545,752.794613 C1328.79756,763.999435 1314.15717,756.670519 1307.50227,757.676092 C1271.61261,757.101069 1238.2365,763.571756 1206.72784,778.838098 C1201.56267,781.340071 1201.5157,781.32859 1197.28329,777.224014 C1097.8289,679.55999 1006.76935,769.473159 992.872866,881.624709 C991.778096,886.891769 991.403267,887.233339 986.424077,885.737895 C968.353662,880.308183 950.312007,874.778966 932.291441,869.184687 C927.972756,867.844242 927.748434,867.60122 928.755967,863.007732 C943.923612,779.915429 901.63309,701.4214 859.731776,634.908139 C869.859836,516.984351 981.001035,492.52242 1080.80628,507.272102 C1084.47309,507.631851 1085.70782,510.372061 1086.89846,513.383997 C1112.00243,574.59671 1138.24432,641.050651 1190.30245,684.501746 C1296.31683,755.503251 1349.59531,621.776368 1209.92683,545.886687 C1174.17712,525.420259 1136.06341,510.973875 1095.64703,502.808735 C1091.5613,501.983036 1089.6373,500.178554 1088.36902,496.536101 C1070.68973,445.484366 1055.00058,377.888989 1099.76057,336.138088 C1102.39779,333.731792 1103.10719,333.842779 1104.70525,337.112087 C1151.10259,421.871096 1246.84895,491.185801 1345.81922,489.802301 C1467.40867,472.158367 1413.37381,372.306192 1333.03764,337.674673 C1265.59041,308.302559 1180.74862,280.482339 1111.4445,318.217645 C1099.41162,331.026026 1090.90367,264.085085 1089.28835,255.810873 C1090.06198,248.943124 1082.21645,231.109747 1092.04541,230.996848 C1138.39483,221.396542 1186.60784,220.513436 1231.26621,204.091306 C1235.39796,202.793916 1236.34798,203.480882 1235.84469,207.988261 Z M859.14704,650.507991 C904.913471,708.623799 932.880991,785.502317 922.610427,859.677172 C923.974321,871.818256 889.950074,851.259494 882.959396,850.809044 C870.574701,844.128956 869.0194,775.06432 865.428839,757.760304 C862.397108,721.956182 857.231048,686.562257 859.14704,650.507991 Z M739.254911,561.508887 C779.627571,579.878728 817.161783,604.925994 847.642039,637.243043 C855.091767,645.431939 850.180543,657.850476 851.573893,667.926325 C852.290692,725.004969 860.65271,781.777879 868.344886,838.263208 C871.803346,851.169964 851.088041,836.223388 845.473434,835.981667 C789.155825,816.122327 729.841651,799.516189 685.87158,756.867238 C671.370771,742.878948 642.579018,729.139067 660.347588,706.131621 C677.987747,680.071612 689.562904,650.709674 701.619121,621.833089 C709.605491,602.506873 718.093045,583.422378 728.524006,565.259862 C732.326491,558.408552 732.335116,558.388488 739.254911,561.508887 Z M1093.73178,509.507991 C1161.15722,524.593912 1230.36044,552.493831 1272.27132,609.261341 C1310.06993,657.211756 1273.93006,719.244087 1213.90172,689.951945 C1148.75799,653.344895 1120.71981,575.166221 1093.73178,509.507991 Z M1098.91572,320.57664 C1100.32406,324.113712 1100.03337,326.404378 1097.06606,329.076343 C1050.24721,370.369651 1063.08925,438.613495 1080.17455,491.196309 C1081.07348,494.505369 1084.70754,500.919426 1078.25583,499.230407 C982.151599,483.769607 866.150177,513.262773 854.787477,625.701819 C854.609036,627.817164 854.161013,632.202099 851.161084,629.816587 C820.150622,598.149635 783.869418,573.877769 743.733492,555.369454 C736.512364,552.012493 736.272523,551.952136 740.542649,545.590771 C765.548456,509.685464 788.536721,472.277954 815.032418,437.456186 C817.81841,433.98905 818.100462,433.975638 822.38402,435.685734 C899.537941,467.279875 1013.6734,425.400249 1018.34358,333.537921 C1022.31151,299.911783 983.072588,264.234488 996.437479,263.181606 C1119.19666,216.950576 1061.42379,220.250055 1098.91572,320.57664 Z M1185.94323,306.527457 C1261.01721,312.479732 1344.18608,334.350923 1394.70387,393.426458 C1434.26411,438.907987 1394.29328,481.03545 1343.1759,482.507991 C1247.70255,481.800865 1155.90922,414.902997 1111.41032,333.024586 C1103.03721,317.035911 1174.70746,305.979913 1185.94323,306.527457 Z M986.927572,271.861662 C1054.47849,356.83071 965.954516,441.511997 874.959507,439.471853 C864.619973,439.116214 825.793399,435.957527 824.731776,426.024491 C840.522575,410.149797 857.15883,395.073378 873.414629,379.664266 C891.741795,362.623229 908.555787,344.433057 919.903142,321.852846 C926.994398,307.740095 937.245544,296.487753 950.888118,288.363504 C959.287908,285.652235 980.781688,265.113124 986.927572,271.861662 Z M1401.60747,243.630978 C1418.53909,262.196633 1430.73806,285.882887 1431.73178,311.507991 C1414.79633,298.032174 1400.33847,282.592516 1384.19819,268.240997 C1381.44915,265.090968 1377.12129,262.444637 1381.81076,258.977394 C1386.98943,255.908111 1396.24848,237.884602 1401.60747,243.630978 Z M1313.7295,186.507991 C1313.75816,186.719358 1313.78777,186.928804 1313.81642,187.140171 C1350.1192,183.020429 1337.12773,221.110747 1357.55532,246.32495 C1359.31191,251.722503 1370.56399,258.394986 1365.37638,263.609034 C1350.05807,274.439689 1333.81992,283.429527 1314.45449,282.432257 C1274.22972,281.760686 1235.16072,245.708141 1243.99236,203.436594 C1245.5732,196.354827 1255.54915,198.823982 1260.87145,196.478765 C1278.38955,192.46855 1295.73094,187.680119 1313.7295,186.507991 Z M1346.73178,198.507991 C1351.11198,199.371185 1354.29888,201.46002 1356.43236,204.27947 C1363.95854,214.222896 1374.52318,220.61721 1383.74701,228.568135 C1386.88823,232.047619 1395.445,235.544271 1389.91241,240.507877 C1385.15252,243.910102 1375.83829,262.02669 1370.76247,253.025625 C1358.75235,236.850031 1349.55517,218.671446 1346.73178,198.507991 Z" id="Combined-Shape" fill="#F55B80"/><path d="M544.913881,852.512799 C536.977727,852.242687 536.497138,863.443061 544.549228,863.503519 C552.566637,863.762904 552.889672,852.652243 544.913881,852.512799 M580.799842,872.497542 C588.925257,872.899253 588.536166,861.584408 580.656835,861.511549 C572.82022,861.278202 572.64564,872.600924 580.799842,872.497542 M571.7023,860.170212 C571.539655,851.185726 559.840538,853.676559 560.78615,862.156417 C561.203165,870.734159 572.378413,868.210064 571.7023,860.170212 M504.729802,853.9785 C504.906512,846.563978 493.162911,844.537161 492.771489,853.157683 C491.937343,861.416308 504.51794,861.545349 504.729802,853.9785 M607.722278,864.417114 C608.102803,855.91439 596.924757,857.038064 596.742325,864.908601 C596.33508,873.921121 607.854955,873.650322 607.722278,864.417114 M531.726924,855.776713 C532.00955,849.397829 519.85568,844.624196 518.761706,852.973373 C518.031109,859.954109 530.91077,864.355212 531.726924,855.776713 M629.655924,872.757246 C630.85813,863.442333 617.366401,863.032962 617.739372,871.94245 C617.431185,881.918276 629.786418,884.410999 629.655924,872.757246 M735.319645,945.261868 C637.899812,936.699669 536.032925,956.032373 441.294178,929.122333 C413.916402,921.897143 438.71573,862.07627 446.183443,844.228495 C457.648324,817.775576 478.284534,795.403348 488.061146,769.0764 C506.021066,745.345215 530.304321,773.122736 552.787075,773.989263 C594.308899,788.07032 628.423443,819.348303 667.103028,839.858643 C697.290427,859.185622 738.912972,872.533758 757.840769,904.143846 C760.090196,915.370518 762.17751,926.643953 759.403377,938.144516 C758.269551,949.961916 743.428132,943.622339 735.321563,945.134943 C735.320604,945.176933 735.320604,945.218923 735.319645,945.261868" id="Fill-5" fill="#52DC82"/><path d="M1529.79795,766.538876 C1570.21747,804.455174 1603.98551,853.001906 1602.69603,910.618703 C1600.53283,917.070911 1605.05848,932.032829 1595.77534,933.851823 C1579.5351,935.574072 1562.98735,933.361394 1546.64365,933.362352 C1542.37762,933.216756 1540.93197,931.77612 1541.64282,928.259782 C1545.50361,902.01991 1535.40328,876.27813 1531.36813,850.583286 C1524.85843,820.644123 1502.8318,796.222288 1478.29805,778.955735 C1467.72925,774.776552 1493.016,758.026291 1496.19373,752.369115 C1506.89857,742.478157 1520.69491,760.963118 1529.79795,766.538876 Z M1659.46577,678.083835 C1748.50734,712.658563 1792.24624,776.660118 1748.74939,868.941651 C1724.76196,917.495676 1663.68732,926.561415 1615.06505,932.317653 C1611.75985,932.76434 1611.71567,932.667733 1611.88857,929.28745 C1622.66481,852.647616 1572.52585,780.433523 1510.73178,739.441614 C1542.10764,716.75431 1578.94703,703.80708 1613.44463,686.758364 C1627.41945,679.30529 1643.51897,673.621747 1659.46577,678.083835 Z M1472.24172,787.869216 C1516.50156,815.116909 1525.56589,866.781716 1530.73178,914.512707 C1529.54024,919.026464 1532.45374,931.433776 1524.15142,929.253231 C1493.77875,923.664083 1464.14023,909.689775 1442.51768,887.35815 C1409.39583,853.323978 1430.38706,812.674238 1461.48618,786.432803 C1464.96374,782.370325 1468.80548,785.663707 1472.24172,787.869216 Z" id="Combined-Shape" fill="#EBBF5E"/><path d="M162,660.062488 C211.726087,650.857882 259.355169,645.857826 307.886796,632.932516 C325.825706,628.444201 344.125442,626.099042 362.366795,623.370077 C372.931255,623.461459 385.631961,615.644903 395.148398,620.707484 C405.954047,633.810749 425.153456,643.274111 427.885017,661.172543 C429.93321,709.678285 404.533712,744.852788 358.435988,759.289273 C337.200829,768.825741 316.268114,758.087836 297.329993,748.371489 C248.007802,725.608631 200.933837,698.647957 162,660.062488" id="Fill-14" fill="#EBBF5E"/><path d="M462.35915,205.353804 C474.209569,283.098673 479.40089,361.679765 492.228871,439.308598 C491.843974,451.834698 505.663879,502.293919 496.704973,506.570937 C476.781293,514.044211 457.852409,524.636063 436.964573,529.124055 C432.959539,530.063848 432.055701,529.47408 431.200694,525.140483 C421.942105,483.406954 416.52291,441.035708 411.85053,398.575278 C408.035072,343.509152 401.782891,288.705785 395.731776,233.871731 C397.516472,224.2868 415.29258,222.368855 422.774133,216.804896 C429.521318,215.737559 464.092143,192.547684 462.35915,205.353804 Z M377.361443,244.30417 C380.735482,273.216981 384.813916,302.056037 387.171448,331.078043 C391.686074,396.602892 398.12395,462.087511 411.731776,526.410254 C409.531731,535.764652 367.67361,510.983064 360.273632,507.897817 C341.531731,465.728312 342.633185,413.672801 335.529092,367.569391 C332.504389,335.737043 330.800666,303.733238 326.731776,272.007211 C327.404675,260.937297 363.102671,249.455506 372.854453,241.374096 C375.991784,239.632718 376.904254,240.471797 377.361443,244.30417 Z M555.463395,259.904423 C562.545843,327.051895 572.165374,393.849163 582.731776,460.525868 C566.544277,474.422111 545.190981,482.08643 526.698345,492.738972 C516.067036,500.040648 519.255092,482.775358 517.17522,476.583621 C502.960688,383.599452 494.552428,289.887124 481.056641,196.835019 C480.422848,192.463199 480.295898,192.314889 484.720997,190.582044 C503.787292,183.181814 522.919448,175.952859 541.918928,168.383268 C551.207244,157.531702 552.028121,250.997164 555.463395,259.904423 Z M307.908241,278.507991 C318.608743,349.94496 316.968771,423.074993 334.731776,493.507991 C317.397672,485.524078 301.527384,475.276686 285.572847,464.893389 C269.649903,440.182692 276.418495,404.91164 270.672372,376.15922 C267.676768,297.626503 246.491173,316.38037 307.908241,278.507991 Z M621.232022,145.357588 C625.862326,176.798446 628.421481,208.446868 631.002732,240.101029 C635.954851,298.896485 642.370993,357.604897 651.328998,415.936439 C652.096552,421.046176 652.188774,421.090176 647.690078,423.714871 C632.132449,432.792258 617.30587,441.301473 601.652176,450.507991 C585.087792,355.328376 572.860715,258.592501 565.731776,162.06993 C567.684765,153.875411 593.077468,151.078543 601.092121,146.405936 C606.727258,145.771762 619.924585,136.413157 621.232022,145.357588 Z M248.245088,334.973241 C251.249482,370.318831 255.61503,404.973663 256.731776,440.507991 C235.804385,420.02761 181.676992,384.28251 200.727361,351.749774 C203.271918,348.996319 207.817151,351.724865 209.695139,348.074668 C220.120676,337.718074 232.01653,329.100353 244.000295,320.667536 C249.688356,318.962195 246.727434,331.411186 248.245088,334.973241 Z M703.704607,127.42112 C708.692282,193.87935 706.669089,260.67412 709.273891,327.255684 C709.172492,327.257596 709.071093,327.260464 708.969694,327.262376 C705.833983,380.466438 724.269441,378.896551 673.005629,408.351531 C666.051199,410.143229 668.727745,396.044841 666.789688,391.703272 C660.163369,342.162917 654.313804,292.513569 650.283678,242.69117 C647.074309,208.844904 645.770473,174.777783 639.986912,141.235552 C639.351735,136.992459 639.662627,136.02586 643.731974,135.096548 C652.399662,135.307842 706.690134,115.27314 703.704607,127.42112 Z M723.731776,133.507991 C751.416292,159.068824 770.823238,190.439505 791.311149,221.609779 C801.143558,237.969211 786.655195,256.0249 786.629503,273.470742 C779.260668,310.150735 758.388329,345.237071 728.529512,367.507991 C726.825279,289.35457 729.013853,211.654699 723.731776,133.507991 Z" id="Combined-Shape" fill="#60D6E1"/><path d="M240.330602,551.576389 C227.955762,550.4496 229.95928,567.124 239.857044,567.494878 C249.318635,568.058273 253.654478,550.272182 240.330602,551.576389 M189.719271,570.507991 C202.649544,570.373271 200.541687,553.653851 190.504273,552.510635 C177.734977,552.258273 177.485936,570.155064 189.719271,570.507991 M231.731776,597.114154 C231.597381,589.762986 221.45395,581.792408 214.705723,587.391145 C202.816131,599.560055 230.321113,617.832656 231.731776,597.114154 M215.787116,517.538654 C202.803863,516.579415 202.32144,538.443976 214.758535,538.507991 C227.02894,538.434127 231.168755,517.235322 215.787116,517.538654 M274.352651,597.501218 C288.134086,597.919256 290.052135,578.851091 276.492631,577.570674 C261.848971,576.227316 258.098812,596.915025 274.352651,597.501218 M181.727901,597.86513 C181.985497,587.358322 169.332681,583.441481 163.737403,592.784569 C157.410517,601.523895 167.1752,619.57012 177.406237,609.573749 C180.574947,606.353998 181.746096,602.300978 181.727901,597.86513 M309.677719,549.138299 C317.329418,554.315598 325.238059,559.665185 333.338448,565.146636 C325.467198,572.520365 328.78156,587.165799 340.882768,584.175304 C345.235445,584.038629 349.338849,577.040276 353.278309,580.406146 C363.183046,589.840593 372.727296,598.757213 381.731776,609.197475 C367.145516,611.467055 353.463346,613.59611 338.887631,615.862803 C346.049415,593.106363 316.304526,594.172815 322.011901,614.831963 C323.096235,617.399919 323.02433,618.498134 320.17208,619.133385 C302.731653,623.016119 285.314235,626.996066 267.8786,630.895162 C263.801082,631.807615 263.71096,631.726764 263.435802,627.354117 C263.656312,620.615639 255.050668,616.088991 250.294362,621.34329 C247.857246,624.024822 247.466081,627.085579 248.800646,630.538074 C255.065049,638.068692 221.174571,637.726041 215.39529,640.241059 C216.083665,633.482368 217.999226,626.025864 208.6496,627.529292 C198.970167,628.649645 197.268405,630.190611 195.339421,640.278597 C195.919459,646.244185 162.24278,648.09219 156.212309,648.507991 C163.226446,618.821535 147.675694,642.013988 141.181194,623.110444 C126.339908,588.197601 162.766252,558.996246 186.289881,538.680712 C196.441972,529.641853 203.230805,511.645949 219.09123,512.540114 C229.983468,515.461308 240.7434,518.884929 251.533053,522.183424 C256.878025,523.088176 256.602867,528.782339 259.481002,532.372472 C270.011796,542.783859 265.59009,523.930365 289.809763,538.452599 C292.461637,539.674014 293.718544,540.451716 291.31786,543.471085 C281.224252,559.984736 304.366303,566.184213 309.677719,549.138299" id="Fill-24" fill="#52DC82"/><path d="M1719.70292,367.177122 C1714.45359,383.274792 1713.56129,401.208625 1704.21276,415.697009 C1692.07998,444.008528 1679.9932,433.82984 1666.7036,450.32839 C1664.99663,455.285069 1659.02752,456.688628 1656.55094,461.378054 C1644.72006,471.948008 1623.61445,467.706567 1608.65813,469.109165 C1549.92068,473.630356 1524.436,470.811702 1526.89342,404.190708 C1522.44917,389.615803 1638.6992,379.46211 1655.95958,373.510442 C1664.86245,373.779618 1721.18849,358.50005 1719.70292,367.177122 Z M1727.73178,328.507991 C1724.10828,337.698801 1728.10649,352.896281 1718.37164,356.604042 C1687.74491,361.29636 1657.13255,366.086073 1626.56811,371.160257 C1594.63133,376.644272 1562.60733,381.843815 1531.18901,389.90928 C1520.67695,394.3692 1525.78108,372.64529 1523.96694,366.644407 C1520.45844,356.521111 1557.25211,355.404444 1564.75594,352.525987 C1619.19271,344.963891 1673.14168,334.635198 1727.73178,328.507991 Z" id="Combined-Shape" fill="#60D6E1"/><path d="M1713.73248,272.835652 C1720.85621,296.418538 1734.91349,288.330399 1734.73178,296.915767 C1731.55805,304.293578 1734.70897,318.725713 1725.81817,321.328969 C1694.76199,326.621871 1663.59877,331.195807 1632.41931,335.687191 C1598.76938,340.270726 1565.28861,345.83912 1532.00471,352.611233 C1524.37733,355.600369 1524.46621,350.67127 1524.88384,344.404066 C1539.20012,230.316769 1546.81221,319.783526 1596.84461,313.371377 C1619.97715,313.457768 1623.73875,245.08775 1642.43783,289.242306 C1651.19293,308.222459 1684.11653,306.555109 1685.9419,283.800619 C1684.84955,267.336371 1705.78781,253.712474 1713.73248,272.835652 Z M1716.56156,217.944353 C1721.67989,236.035834 1742.93459,225.062801 1741.67832,235.248204 C1738.19694,256.453705 1741.85154,314.808456 1718.09002,265.500886 C1704.42146,244.467319 1680.67897,260.037422 1679.18383,278.652389 C1680.31637,296.692962 1656.8575,300.524495 1649.239,285.72185 C1644.59462,269.035617 1624.93501,255.882193 1616.99959,278.037653 C1608.73773,292.822048 1605.32012,311.608949 1583.04423,305.227223 C1565.99707,302.093992 1560.72076,277.595812 1541.66928,279.55048 C1538.6276,279.799256 1537.67969,278.402653 1537.60545,275.634421 C1537.3266,265.155098 1536.747,254.677695 1536.73178,244.198372 C1537.18575,233.805496 1551.62329,224.117644 1560.00602,231.888288 C1575.57325,244.537437 1601.32291,277.396984 1610.09012,239.96534 C1611.41586,230.93833 1613.10136,221.375347 1618.66414,213.998518 C1630.20276,199.107505 1646.83497,210.237103 1649.90045,226.545851 C1653.58549,241.043048 1670.99906,252.161121 1680.39536,235.872545 C1684.20413,228.598492 1684.82846,219.547468 1688.02718,211.978534 C1695.47341,197.924139 1714.66193,202.355039 1716.56156,217.944353 Z M1665.0233,141.25688 C1696.48645,153.405286 1743.84297,180.306013 1742.71188,219.10857 C1742.98869,224.832578 1736.69663,222.510738 1733.14685,222.7458 C1724.39314,222.448374 1722.83826,213.49106 1719.87454,206.927543 C1710.83543,186.593211 1679.5565,196.799714 1677.86131,217.470809 C1672.92273,250.121449 1657.94569,234.63228 1651.89798,212.809859 C1644.27726,197.340837 1626.04728,195.515027 1614.31076,206.980313 C1600.14695,214.262448 1608.17429,258.956915 1588.20617,247.699827 C1573.36084,235.949588 1559.0634,211.56163 1538.33836,226.299559 C1532.56555,186.62871 1540.59671,132.641125 1591.53928,136.035618 C1595.12629,135.986686 1598.30477,135.12607 1600.95064,132.383037 C1620.79372,120.281643 1644.00236,140.302239 1665.0233,141.25688 Z" id="Combined-Shape" fill="#7DB4DB"/><path d="M935.132343,148.350513 C932.143109,109.590142 980.530558,117.614063 1005.53714,121.237395 C1019.82635,120.8565 1027.80527,132.91945 1030.51894,145.681351 C1032.00927,154.5531 1030.14326,161.024441 1023.42583,164.328749 C1012.98973,171.770694 1003.37746,180.923764 991.008609,185.249914 C940.870528,207.206455 935.631025,204.350713 935.544256,148.394016 C935.406952,148.379515 935.269647,148.365014 935.132343,148.350513" id="Fill-58" fill="#52DC82"/><path d="M265.974544,831.047916 C267.062067,859.926874 233.073088,873.013115 208.339669,870.749901 C193.331071,872.768987 180.459785,854.669017 178.704654,841.488954 C173.259296,815.592192 200.232588,770.075163 229.974033,789.835206 C252.965867,801.027777 264.734148,800.724292 265.974544,831.047916" id="Fill-61" fill="#7DB4DB"/></g></g><g id="Plants/Big Plant" transform="translate(141.000000, 483.000000) scale(1 1)"><g id="Plants/Big Plant/Big Plant 1" stroke="none" stroke-width="1" fill="none" fill-rule="evenodd"><g id="Group" transform="translate(46.000000, 70.000000)"><path d="M207.727381,304.6152 C207.727381,304.6152 201.167381,281.8972 206.613381,267.2852 C212.059381,252.6712 218.401381,244.0572 231.889381,228.6952 C245.377381,213.3332 243.877381,203.9692 258.489381,186.7352 C273.101381,169.4992 298.203381,165.7532 316.561381,156.7612 C334.919381,147.7692 335.667381,138.0292 347.281381,131.8112 C358.895381,125.5912 374.631381,131.8112 374.631381,131.8112 C374.631381,131.8112 355.899381,137.2792 337.167381,155.6372 C318.435381,173.9952 323.515381,186.5032 308.529381,210.0552 L298.895381,220.2812 L207.727381,304.6152 Z" id="Fill-70" fill="#000"/><path d="M181.298781,334.998 C181.298781,334.998 192.728781,295.732 194.298781,276.25 C195.868781,256.768 196.260781,182.956 178.202781,143.302 C160.140781,103.648 143.258781,91.482 135.014781,81.666 C126.768781,71.848 125.984781,61.246 113.028781,50.646 C100.072781,40.046 78.1187807,39.83 69.8407807,32.586 C60.4187807,24.342 23.9047807,3.534 5.45278072,-2.84217094e-14 C5.45278072,-2.84217094e-14 24.6907807,25.912 31.7567807,53.788 C38.8247807,81.662 29.4027807,95.796 35.2907807,109.932 C41.1807807,124.064 53.3507807,137.022 61.5967807,153.51 C69.8407807,170 76.9087807,213.58 83.5827807,224.182 C130.982781,255.596 164.020781,301.33 183.942781,360.79 L181.298781,334.998 Z" id="Fill-71" fill="#870CF7"/><path d="M175.561381,460.2596 C175.435381,459.5296 162.495381,387.1896 117.457381,383.9316 C93.7873807,382.1696 87.2593807,419.4376 87.1953807,419.8156 L84.3733807,419.3396 C84.4413807,418.9356 86.1033807,409.2916 90.9353807,399.7116 C97.4833807,386.7276 106.725381,380.2976 117.665381,381.0756 C137.303381,382.4976 154.041381,396.6196 166.071381,421.9136 C175.067381,440.8276 178.351381,459.5876 178.381381,459.7756 L175.561381,460.2596 Z" id="Fill-72" fill="#000"/><path d="M184.468581,459.9628 C185.914581,422.2988 185.058581,384.5348 181.242581,347.0488 C177.424581,309.5748 170.516581,272.3708 159.754581,236.2588 C149.012581,200.1568 134.368581,165.1728 115.652581,132.4508 C114.584581,130.3468 113.280581,128.3808 112.052581,126.3728 L108.332581,120.3648 L100.892581,108.3448 C95.6365807,100.5288 90.1405807,92.8668 84.7745807,85.1148 L67.2645807,62.8988 L48.5445807,41.6688 C54.9385807,48.6028 61.4025807,55.4908 67.7525807,62.4828 L85.5805807,84.5088 C91.0565807,92.2048 96.6665807,99.8168 102.038581,107.5888 L109.564581,119.6028 L113.326581,125.6128 C114.568581,127.6228 115.884581,129.5888 116.966581,131.6928 C135.900581,164.4328 150.768581,199.4768 161.724581,235.6668 C172.702581,271.8648 179.814581,309.1808 183.824581,346.7788 C187.840581,384.3928 188.684581,422.2948 187.328581,460.0728 L184.468581,459.9628 Z" id="Fill-73" fill="#000"/><path d="M1.50378072,490.0682 C1.50378072,490.0682 0.80978072,475.3122 9.31578072,466.2862 C17.8217807,457.2602 33.0977807,457.9522 38.6517807,453.4422 C44.2077807,448.9282 46.6377807,441.6362 52.5397807,438.6862 C58.4417807,435.7342 65.7337807,441.6362 78.2317807,435.3862 C90.7297807,429.1362 92.9877807,386.6082 95.7637807,380.8782 C98.5417807,375.1502 119.893781,357.6162 119.893781,357.6162 C119.893781,357.6162 113.123781,361.0122 104.617781,360.7902 C96.1117807,360.5682 76.4957807,346.1602 71.2877807,347.0262 C66.0797807,347.8962 51.1457807,359.8722 48.5457807,363.8662 C45.9437807,367.8602 43.6857807,378.6202 32.0557807,389.2102 C20.4257807,399.8002 13.6557807,405.8762 11.2237807,412.2982 C8.79578072,418.7222 3.41378072,426.0142 3.93378072,431.0462 C4.45578072,436.0822 4.67178072,452.9882 3.67778072,456.5342 C2.68578072,460.0822 -2.51621928,481.0402 1.50378072,490.0682" id="Fill-74" fill="#BE6FFB"/><path d="M87.7673807,419.578 C87.7673807,419.578 88.3813807,417.162 89.5673807,412.854 C92.5193807,402.118 100.055381,382.928 118.055381,384.23 C137.369381,385.626 150.375381,397.402 159.565381,412.754 C159.565381,412.754 153.303381,400.194 154.305381,393.43 C155.307381,386.664 162.697381,378.774 161.445381,371.758 C160.193381,364.742 149.795381,364.368 142.905381,360.86 C136.015381,357.352 132.759381,351.84 125.117381,351.84 C117.475381,351.84 100.939381,373.386 95.9293807,378.022 C90.9193807,382.656 87.7673807,419.578 87.7673807,419.578" id="Fill-75" fill="#870CF7"/><path d="M186.898381,460.0604 L184.900381,459.9744 C189.132381,362.0744 229.004381,279.8824 306.796381,208.7024 L308.146381,210.1804 C230.766381,280.9824 191.106381,362.7184 186.898381,460.0604" id="Fill-76" fill="#000"/><path d="M302.534981,216.4178 C279.742981,234.2718 232.224981,247.9638 218.400981,270.2818 C200.552981,299.0978 206.570981,336.9798 208.966981,348.4158 C227.102981,302.1478 258.716981,259.4658 298.894981,220.2818 C300.244981,218.9638 301.328981,217.7978 302.534981,216.4178" id="Fill-77" fill="#BE6FFB"/><path d="M217.803581,576.494 L153.533581,576.494 C141.297581,576.494 131.377581,566.574 131.377581,554.338 L131.377581,460.018 L239.959581,460.018 L239.959581,554.338 C239.959581,566.574 230.039581,576.494 217.803581,576.494" id="Fill-78" fill="#CCA4FF"/></g></g></g><g id="Plants/Small" transform="translate(1767.000000, 541.000000) scale(1 1)"><g id="Plants/Small/Wild Plant" stroke="none" stroke-width="1" fill="none" fill-rule="evenodd"><g id="Big-Leaf-Plant" transform="translate(7.000000, -33.000000)"><g id="Big-Ass-Leaf" transform="translate(42.000000, 0.000000)"><path d="M39.920055,0.636705394 C44.5916183,0.0708649441 49.5775952,0.270604311 53.9220123,2.09875034 C63.1599709,5.98661921 65.7858754,16.8065841 65.6591945,25.601063 C65.5226226,35.0667611 63.4951165,45.4056964 70.7539315,53.0324384 C74.0906643,56.538774 78.2413006,59.222142 81.5177486,62.7928605 C85.0186869,66.6086545 87.7656853,70.9746816 89.7996322,75.6631016 C93.5342002,84.2748405 95.3671914,94.4021333 91.9521332,103.435904 C88.9452345,111.389609 81.3802136,118.568509 83.0148311,127.612641 C84.719881,137.047356 94.3143104,144.260274 100.312789,151.287655 C107.101372,159.24045 113.351814,169.404849 114.378621,179.834104 C115.363226,189.829038 110.974926,199.937477 104.240295,207.49283 C90.7844856,222.589675 70.5583165,229.990648 50.1641301,229.945004 C41.5053139,229.924905 31.701776,229.537191 24.2294508,224.923998 C21.9200204,223.498095 20.7016475,221.898359 19.3287558,219.6745 C18.0978112,217.680345 16.4717427,216.383232 14.5896011,214.972167 C10.4545424,211.872849 7.46829642,207.695718 5.56254927,203.019857 C-1.83787892,184.858454 4.07696015,162.390571 14.4358846,146.263104 C16.8904923,142.442177 18.9001185,138.7653 17.7076601,134.21098 C16.4632936,129.456822 13.4049109,125.168831 10.6998061,121.082228 C8.02673266,117.04339 4.97506332,113.190393 2.8858059,108.823524 C0.697650654,104.248917 0.0814836695,99.4585347 0.468106183,94.4520083 C1.19473671,85.0475755 5.28957003,76.3690878 11.0869628,68.8058469 C16.6709248,61.5207917 23.2274283,54.5501219 23.2421195,45.0045047 C23.2582523,34.8874507 16.4361141,25.8877072 19.3424458,15.6017887 C20.5458573,11.3425764 22.9629552,6.97259886 26.8582866,4.41913789 C30.5939823,1.97018105 35.5265053,1.1688716 39.920055,0.636705394 Z" id="leaf" fill="#870CF7"/><path d="M36.8675254,16.8102823 C36.9551291,15.4515235 38.5808307,14.6365904 39.8606184,14.9911521 C41.5451716,15.4580828 41.5127746,17.0185941 41.4683002,18.4088875 C41.3319667,22.6823187 41.9558568,26.835396 42.9920037,30.9818361 C45.1455237,39.6027464 49.1255182,47.5454988 52.2786721,55.8265665 C55.4290779,64.1007019 56.9079449,72.6434964 55.0597847,81.3987129 C53.3175209,89.6536612 50.5803712,97.6946507 48.7973324,105.960019 C47.2257284,113.244879 45.5534665,120.927172 47.9468185,128.193482 C50.2498117,135.187834 55.3414128,140.883968 59.0078069,147.204817 C66.5976661,160.289375 69.9648683,174.80513 70.4152468,189.743121 C70.623968,196.67975 70.4360093,203.680165 68.8128703,210.483489 C67.8786457,214.40086 66.623205,219.695014 63.2372419,222.399578 C61.6758875,223.646795 59.0054758,224.078063 57.6913598,222.231077 C56.4575963,220.498751 57.5399424,217.816936 57.9316199,215.970548 C59.6278675,207.977834 59.9691143,199.809597 59.5630083,191.693832 C59.1699633,183.832647 58.2331281,175.98459 55.7375948,168.476832 C53.4214051,161.509524 49.9026844,155.251528 45.7613625,149.156614 C41.5413845,142.945471 37.1543468,136.721077 35.4106669,129.361512 C33.6390369,121.886806 35.0783086,114.281052 37.0028122,106.949097 C39.0380218,99.1939561 41.7038279,91.6612874 44.4597962,84.1162682 C47.145582,76.7642095 48.0975614,69.8078546 46.6148951,62.113071 C43.6859592,46.9107431 35.8460591,32.6416562 36.8675254,16.8102823 Z" id="middle-thing" fill="#000"/></g><g id="Big-Ass-Leaf" transform="translate(56.000000, 28.000000)"><path d="M148.574005,2.56577587 C154.36847,4.31112838 160.123463,7.12717912 164.254022,11.5428277 C173.036965,20.9328497 170.342117,35.1247989 165.493591,45.4904539 C160.274751,56.6471295 152.366206,67.8614175 156.824403,80.6623709 C158.873494,86.5472768 162.319222,91.8770706 164.263035,97.8071573 C166.339804,104.144054 167.236176,110.743588 167.121973,117.356668 C166.910551,129.502915 163.65367,142.463125 154.811314,151.411598 C147.025972,159.290131 134.295946,163.891845 131.384668,175.464697 C128.347475,187.537255 135.77266,201.055532 139.069438,212.493636 C142.800574,225.438081 144.71721,240.727356 140.351181,253.628702 C136.167632,265.993069 125.606809,275.712776 113.651856,281.190546 C89.7651724,292.136603 62.0314832,290.452379 38.0797028,279.848515 C27.9106524,275.345907 16.5923768,269.814878 10.2727877,260.477869 C8.31969626,257.591977 7.74219128,255.064283 7.31654676,251.716383 C6.93503181,248.714363 5.71650728,246.334718 4.25782512,243.687455 C1.0526856,237.872359 -0.225898155,231.373117 0.0323102242,224.841249 C1.03714025,199.471817 19.9972696,175.882145 40.7938655,162.111708 C45.7214354,158.8494 50.0488885,155.527771 51.0807209,149.509031 C52.1583173,143.226412 50.8541683,136.558364 49.8577296,130.311927 C48.8734239,124.138714 47.3447145,117.990088 47.2220616,111.72979 C47.0941507,105.171936 48.9296432,99.1713047 52.0595614,93.4330252 C57.9393613,82.6542412 67.3910351,74.4788041 78.2483454,68.5068654 C88.7060805,62.754481 100.139176,57.8780661 105.257435,46.5635516 C110.682754,34.5719983 107.471638,20.368403 116.385037,9.67159625 C120.075858,5.24221783 125.252731,1.30927398 131.19677,0.295569769 C136.897289,-0.676757574 143.124379,0.924292608 148.574005,2.56577587 Z" id="leaf" fill="#CCA4FF"/><path d="M136.737627,22.3953863 C137.559752,20.8272173 139.896642,20.7065619 141.208869,21.7946608 C142.935999,23.2271719 142.071752,25.063738 141.283479,26.6918387 C138.860948,31.6964257 137.393156,36.9542672 136.412061,42.4190787 C134.371383,53.7806418 134.830486,65.2886358 134.141364,76.7675342 C133.452691,88.2367666 130.662653,99.1539454 123.860725,108.589496 C117.4478,117.486057 109.982117,125.609997 103.515885,134.497684 C97.8166328,142.330994 91.7889682,150.583885 90.7466313,160.461554 C89.7423896,169.969121 92.6939059,179.388091 93.6442405,188.80628 C95.6117158,208.30263 91.8722572,227.298144 84.4905897,245.275014 C81.0623378,253.622564 77.1353867,261.839139 71.6307027,269.073661 C68.4615404,273.239517 64.1869059,278.873198 58.7863749,280.320821 C56.2960131,280.988444 52.9378269,280.108948 52.3755909,277.230376 C51.8468197,274.529865 54.5353707,271.9087 55.9720784,269.919836 C62.19222,261.310754 66.917182,251.787022 70.7384326,241.936119 C74.4401932,232.394392 77.4976577,222.584855 78.5480786,212.367159 C79.522534,202.884835 78.7119995,193.618259 77.0853995,184.220902 C75.4281537,174.644504 73.5821239,164.965302 75.4352811,155.315457 C77.3166459,145.514291 83.030709,137.230882 89.1685104,129.525555 C95.6601364,121.375298 102.773051,113.817919 109.998179,106.29286 C117.038879,98.9604083 121.837964,91.1943445 124.174536,81.2823851 C128.791195,61.6998228 127.157858,40.6662725 136.737627,22.3953863 Z" id="middle-thing" fill="#870CF7"/></g><g id="Big-Ass-Leaf" transform="translate(0.000000, 112.000000)"><path d="M21.5853995,-3.95013589e-13 C31.1473128,-3.95013589e-13 39.5538332,5.04326019 45.3464352,12.1998142 C52.1272259,20.5775772 53.4967363,30.8084914 56.2501921,40.7932931 C57.6203039,45.7623103 59.9768001,50.695083 64.1063822,54.0710917 C67.8624615,57.1413598 72.6307876,57.7557642 77.1266551,59.2558228 C86.1117741,62.2536016 93.3671119,69.4750452 96.232438,78.2865742 C99.7280878,89.0348508 96.0255379,99.8743234 96.663079,110.766994 C97.2482936,120.770502 107.160854,127.011588 115.136132,131.806982 C123.000142,136.535733 130.084666,140.96225 132.453192,150.174223 C134.964863,159.94448 135.8075,170.850012 132.328691,180.501597 C126.53669,196.571983 109.585916,203.648448 93.2071252,204.745724 C78.3427948,205.741282 59.6526165,204.178087 48.4896331,193.442087 C41.8098866,187.01744 39.3908392,178.032288 39.6909647,169.092733 C39.8774154,163.533865 40.9840905,158.02644 42.4149492,152.65464 C43.4290004,148.847203 44.7991122,145.056136 45.1894558,141.121843 C46.2269637,130.654754 36.5044622,128.644349 28.2284573,125.770503 C17.7120367,122.117983 10.3496402,115.219233 5.23006504,105.607985 C0.462340383,96.659077 -1.53809512,86.6134779 1.32001357,76.7607936 C2.77974206,71.7298098 5.4273419,67.165329 9.01802137,63.2830651 C10.5986421,61.5743078 12.8264271,60.1490767 14.2530757,58.3538 C15.5846945,56.6771951 15.2947937,54.5048577 14.8358844,52.541219 C12.7139553,43.4707165 6.10277457,35.9599008 3.73845949,26.9057668 C1.60389979,18.733195 2.86574996,8.56190898 10.3749013,3.28948941 C13.6191433,1.01134115 17.6200143,0.0251373813 21.5853995,-3.95013589e-13 Z" id="leaf" fill="#BE6FFB"/><path d="M34.6147155,23.6337183 C44.7493195,34.3754701 47.5040273,48.9497619 48.3124806,63.075677 C48.7653338,70.9968055 48.2939846,79.3516961 50.6328312,87.0348985 C52.6339769,93.6108966 57.3253929,98.6377441 62.1611968,103.388667 C71.8954523,112.95248 82.7513995,122.6753 85.5985872,136.516522 C87.2691919,144.639332 86.1415338,153.029298 88.4499515,161.062667 C90.5489469,168.36472 94.2445631,175.538749 98.739683,181.704953 C102.358929,186.670419 107.07421,190.471976 111.03056,195.100721 C112.237572,196.513663 113.966648,198.593617 113.46845,200.588221 C112.885528,202.924224 109.895146,203.663724 107.773478,203.296604 C102.826698,202.441356 98.6627159,197.741292 95.4283059,194.324392 C90.6987047,189.327943 86.6797071,183.953852 83.4130783,177.92561 C79.7866729,171.230941 76.8666945,164.127062 75.6191108,156.616313 C74.3243922,148.824377 74.9687683,140.703905 72.0123946,133.225892 C67.0375725,120.643282 54.9710336,113.217882 46.2468972,103.410882 C35.3772272,91.1907141 36.9983104,75.9815628 38.1116491,60.9495408 C38.7232097,52.6887684 39.3311905,43.3599589 35.1361828,35.8176416 C33.5347889,32.9385598 29.964468,30.2541449 29.2759402,26.9816374 C28.6452869,23.9833002 32.0873292,20.9533955 34.6147155,23.6337183 Z" id="middle-thing" fill="#870CF7"/></g></g><path d="M147.040288,342 L94.9597124,342 C85.1222704,342 76.9099521,337.469005 76.0227878,331.553877 L68,278 L174,278 L165.977212,331.553877 C165.090048,337.469005 156.87773,342 147.040288,342" id="Fill-60" fill="#000"/></g></g><g id="table" transform="translate(1777.000000, 883.000000)"><rect id="Rectangle" fill="#EECFA2" x="0" y="0" width="230" height="40"/><polygon id="Rectangle" fill="#DDBA86" points="183 40 214.112676 40 230 248 207.938284 248"/><polygon id="Rectangle" fill="#DDBA86" transform="translate(23.500000, 144.000000) scale(-1, 1) translate(-23.500000, -144.000000)" points="9.7838404e-14 40 31.1126761 40 47 248 24.9382843 248"/></g><g id="Sofa" transform="translate(413.000000, 489.000000)"><rect id="Rectangle" fill="#95E4D3" x="46" y="376.5" width="1272" height="265" rx="70"/><path d="M169,332.5 L1196,332.5 L1196,457.5 C1196,468.545695 1187.04569,477.5 1176,477.5 L189,477.5 C177.954305,477.5 169,468.545695 169,457.5 L169,332.5 L169,332.5 Z" id="Rectangle" fill="#53D7BC"/><rect id="Rectangle" fill="#53D7BC" x="123" y=".5" width="1120" height="421" rx="70"/><rect id="Rectangle" fill="#95E4D3" x="177" y="316.5" width="1010" height="153" rx="12"/><rect id="Rectangle" fill="#95E4D3" x="0" y="220.5" width="168" height="421" rx="40"/><rect id="Rectangle" fill="#95E4D3" x="1196" y="220.5" width="168" height="421" rx="40"/></g><g transform="translate(274.000000, 441.000000) scale(1 1)" id="Master/Character/Sitting"><g id="Master/Character/Sitting" stroke="none" stroke-width="1" fill="none" fill-rule="evenodd"><g id="Legs Sitting" transform="translate(317.000000, 266.000000) scale(1 1)"><g id="Legs Sitting/Jeans Cool" stroke="none" stroke-width="1" fill="none" fill-rule="evenodd"><g id="Group-20" transform="translate(0.000000, -1.000000)"><path d="M547.936233,294.549565 C547.936233,294.549565 489.462371,314.65151 489.462371,314.65251 C486.317057,315.731453 483.069329,314.221533 482.133762,311.180692 C461.817933,248.139002 434.310971,185.14831 391.621804,136.455866 C385.15126,126.845371 370.756076,121.520651 370.104685,109.454284 C368.220634,99.2448203 392.342394,68.9914088 396.177849,60.4138591 C412.12124,39.0369816 431.877943,69.5483795 444.023707,80.9147827 C494.898624,138.498759 527.740348,211.42093 551.660048,286.034013 C552.765382,289.623824 551.084314,293.473622 547.936233,294.549565" id="Fill-1" fill="#d29863"/><g id="Group-5" transform="translate(108.000000, 0.000000)" fill="#3E36B9"><path d="M31.7194432,1.193 C31.7194432,1.193 1.28902735,52.4514 1.28902735,52.4514 C-0.0928954071,54.8254 2.43710042,58.6074 4.52425491,60.5354 C34.5306683,81.5304 70.2479856,85.1114 103.41137,87.6064 C237.57204,84.0614 301.57228,143.9484 349.675345,276.5054 L440.828848,235.2174 C363.841664,30.0814 278.414624,8.0306 83.7099019,0.7346 C78.7468873,0.359266667 61.4167344,0.512066667 31.7194432,1.193 Z" id="Fill-3"/></g><path d="M543.719008,262 C538.971183,263.946282 521.850883,270.963482 505.889085,277.506345 C512.070234,291.516778 482.20733,303.109588 478.295996,288.816549 C476.206619,289.673353 475,290.168661 475,290.168661 C478.464404,300.032885 481.730789,309.956027 484.588182,320 L587,287.723076 C586.500326,285.950552 585.495427,282.387528 584.967994,280.640967 C584.229587,260.971436 552.132032,274.073139 543.719008,262" id="Fill-6" fill="#D7DBE2"/><path d="M549,234.867124 L457.556457,276 C453.908262,266.570899 450.061024,257.239241 446,248.088548 L535.389533,202 C540.204339,212.851968 544.721503,223.809333 549,234.867124" id="Fill-8" fill="#D7DBE2"/><path d="M338.705188,418.945002 C338.705188,418.945002 277.692362,419 277.692362,419 C274.409873,419 271.747725,416.192153 271.73396,412.695346 C270.817212,334.333654 269.869264,255.300999 259.217921,177.98425 C256.225413,164.063015 253.717434,151.459708 269.622412,146.982954 C278.769702,145.439039 311.794647,126.643073 320.396844,135.2426 C338.707941,140.964285 354.07425,415.995164 338.705188,418.945002" id="Fill-10" fill="#edb98a"/><path d="M87.3558913,1 L20,55.6093315 C30.7251731,83.2038373 50.8383116,100.063082 85.3542635,100.063082 C210.140546,100.063082 249.585834,156.502363 254.672668,247.068018 C256.935661,287.358201 257.79959,328.052317 259.049583,368 L358,365.829618 C348.492456,99.3048991 364.06942,60.5333099 107.250418,1.45869209 C107.250418,1.15289736 100.618909,1 87.3558913,1 Z" id="Fill-12" fill="#694FD9"/><path d="M344.885323,388 C339.849763,388.071405 321.692202,388.327273 304.761418,388.566281 C306.058845,404.27438 274.599443,404.583802 275.495897,388.978843 C273.279076,389.009587 272,389.02843 272,389.02843 C272.105519,397.62876 272.210121,414.93157 272.206451,423.52595 L378,424 L377.987154,412.055537 C377.939441,402.666777 349.044614,400.59405 344.885323,388" id="Fill-14" fill="#D7DBE2"/><path d="M358,365.809343 L258.797401,368 C258.588822,356.807571 258.327636,345.621196 258,334.459038 L357.173988,331 C357.514545,342.612196 357.785883,354.212283 358,365.809343" id="Fill-16" fill="#D7DBE2"/><path d="M192,1 C192,55.5336616 151.085538,99.7422727 100.615385,99.7422727 L95.066,99.742 L94.9773757,100 L56,100 C25.072054,100 -4.00068739e-11,74.927946 -4.00177669e-11,44 L-4.00177669e-11,1.25772731 C0.00010146181,1.1717287 -4.00177669e-11,1.08587715 -4.00177669e-11,1 L192,1 Z" id="PELVIS-PLUS" fill="#694FD9"/></g></g></g><g id="Body" transform="translate(41.000000, -31.000000) scale(1 1)"><g id="Body/Tee Stride" stroke="none" stroke-width="1" fill="none" fill-rule="evenodd"><g id="Right-Arm" transform="translate(411.000000, 157.000000)"><path d="M341.286207,6.05212955 C344.343381,7.46655808 345.794655,9.59488783 346.071135,12.1806633 C346.464916,11.4011165 346.851741,10.6161369 347.230007,9.82692955 C349.290791,5.72987073 354.256228,4.17894801 358.578473,5.7527473 L358.837007,5.85092955 C362.496907,7.28087316 364.647676,10.9354507 364.306055,14.6357684 C366.791217,13.0384704 369.933815,12.5815681 372.848707,13.7665296 C377.766707,15.8325296 379.332707,21.8035296 376.894707,26.5575296 C375.860372,28.2325626 374.804501,30.1391165 373.708883,32.169062 C376.306311,30.7749792 379.385582,30.4144949 382.111407,31.8114296 C395.127603,39.8860226 372.951048,65.6342309 352.999326,84.0248252 C348.800502,88.4733181 343.734365,92.7303079 338.168256,96.7385579 C334.245557,99.8230548 331.0544,102.07202 329.133407,103.12243 C328.194504,103.75627 327.177208,104.258427 326.127323,104.616191 C306.522932,116.35111 284.311754,125.090851 271.668707,128.90793 C230.439707,141.33993 187.231707,143.51493 144.959707,135.75793 C111.935707,129.65093 78.857707,116.55793 51.567707,95.6789296 C38.217707,84.4149296 21.849707,72.0649296 16.250707,54.6099296 C12.220707,40.9689296 18.084707,25.3769296 31.604707,19.7899296 C44.227707,14.4719296 60.023707,15.3829296 71.078707,23.5209296 C77.955707,30.0549296 83.674707,37.5709296 91.725707,43.3019296 C110.721707,57.6829296 133.218707,66.4009296 157.091707,70.8819296 C203.343707,79.3389296 255.036707,72.1969296 294.497707,46.2239296 C294.865387,45.9984458 295.228969,45.768295 295.58886,45.533973 C288.245921,34.2499137 306.562693,28.2854373 311.227107,19.7775296 C314.036336,16.7626754 318.843637,17.5848082 322.239312,19.9448238 L322.449085,20.0928187 C325.218436,16.3499848 327.730998,12.4477039 329.968207,8.39912955 C332.248697,4.70606833 337.087481,4.24781926 341.040338,5.9433634" id="SKIN-DARKER" fill="#d29863"/><path d="M341.286207,6.05212955 C344.343381,7.46655808 345.794655,9.59488783 346.071135,12.1806633 C346.464916,11.4011165 346.851741,10.6161369 347.230007,9.82692955 C349.290791,5.72987073 354.256228,4.17894801 358.578473,5.7527473 L358.837007,5.85092955 C362.496907,7.28087316 364.647676,10.9354507 364.306055,14.6357684 C366.791217,13.0384704 369.933815,12.5815681 372.848707,13.7665296 C377.766707,15.8325296 379.332707,21.8035296 376.894707,26.5575296 C375.860372,28.2325626 374.804501,30.1391165 373.708883,32.169062 C376.306311,30.7749792 379.385582,30.4144949 382.111407,31.8114296 C395.127603,39.8860226 372.951048,65.6342309 352.999326,84.0248252 C348.800502,88.4733181 343.734365,92.7303079 338.168256,96.7385579 C334.245557,99.8230548 331.0544,102.07202 329.133407,103.12243 C328.194504,103.75627 327.177208,104.258427 326.127323,104.616191 C306.522932,116.35111 284.311754,125.090851 271.668707,128.90793 C230.439707,141.33993 187.231707,143.51493 144.959707,135.75793 C111.935707,129.65093 78.857707,116.55793 51.567707,95.6789296 C38.217707,84.4149296 21.849707,72.0649296 16.250707,54.6099296 C12.220707,40.9689296 18.084707,25.3769296 31.604707,19.7899296 C44.227707,14.4719296 60.023707,15.3829296 71.078707,23.5209296 C77.955707,30.0549296 83.674707,37.5709296 91.725707,43.3019296 C110.721707,57.6829296 133.218707,66.4009296 157.091707,70.8819296 C203.343707,79.3389296 255.036707,72.1969296 294.497707,46.2239296 C294.865387,45.9984458 295.228969,45.768295 295.58886,45.533973 C288.245921,34.2499137 306.562693,28.2854373 311.227107,19.7775296 C314.036336,16.7626754 318.843637,17.5848082 322.239312,19.9448238 L322.449085,20.0928187 C325.218436,16.3499848 327.730998,12.4477039 329.968207,8.39912955 C332.248697,4.70606833 337.087481,4.24781926 341.040338,5.9433634" id="SKIN-DARKER" fill="#d29863"/><path d="M75.355307,116.92353 C46.745307,101.01153 -0.0736929955,65.3305296 0.572307005,29.3035296 C1.624307,5.91452955 29.478307,-2.54247045 49.042307,0.845529552 C57.649307,2.55352955 65.6332437,2.47741958 70.4592437,10.1364196 C79.4442437,24.7874196 94.302307,40.8405296 111.323307,49.9725296 L75.355307,116.92353 Z" id="Fill-14" fill="#3F8FD4"/></g><path d="M312,149 L448,149 C470.09139,149 488,166.90861 488,189 L488,300 L488,300 L272,300 L272,189 C272,166.90861 289.90861,149 312,149 Z" id="body" fill="#55B0EB"/><path d="M334,149 C334,167.225397 354.594902,182 380,182 C405.405098,182 426,167.225397 426,149" id="SKIN" fill="#edb98a"/><g id="Left-Arm" transform="translate(114.000000, 149.000000)"><path d="M74.3438502,347.540423 C86.3638502,357.343423 97.0938502,355.709423 103.62885,353.103423 C110.40285,350.211423 108.62785,340.007423 101.39785,338.764423 C90.0398502,337.809423 80.4458502,338.449423 70.5808502,326.731423 C67.4648502,323.195423 65.4538502,322.029423 64.2718502,322.513423 C60.1978502,329.036423 67.9648502,341.754423 74.3438502,347.540423" id="SKIN" fill="#edb98a"/><path d="M74.3438502,347.540423 C86.3638502,357.343423 97.0938502,355.709423 103.62885,353.103423 C110.40285,350.211423 108.62785,340.007423 101.39785,338.764423 C90.0398502,337.809423 80.4458502,338.449423 70.5808502,326.731423 C67.4648502,323.195423 65.4538502,322.029423 64.2718502,322.513423 C60.1978502,329.036423 67.9648502,341.754423 74.3438502,347.540423" id="SKIN-DARKER" fill="#d29863"/><path d="M65.4327502,315.775823 L65.4327502,315.775823 C38.8037502,326.810823 21.9167502,305.288823 16.3227502,281.046823 C11.7167502,267.188823 7.65175021,252.355823 4.84675021,237.858823 C-5.64124979,188.952823 -0.280249786,133.061823 32.5367502,93.3988231 C54.1337502,65.7928231 84.0177502,45.3078231 114.91175,30.1448231 C141.15875,17.4578231 179.86175,-3.08017689 193.42875,35.8868231 C197.88775,52.7928231 189.20375,70.9428231 173.02975,77.0238231 C127.94975,94.4168231 76.3267502,121.380823 67.4417502,172.408823 C63.9897502,193.749823 67.1697502,215.869823 72.1647502,236.881823 C78.3177502,265.613823 101.40775,296.470823 65.4327502,315.775823" id="SKIN" fill="#edb98a"/><path d="M90.8417502,37.4348231 C116.849574,24.5066067 142.563862,4.54747351e-13 202.674991,4.54747351e-13 C220.97481,4.54747351e-13 221,9.80366649 221,27.8213053 C221,45.8389442 206.51375,71.1108231 189.75275,76.5798231 C168.46575,83.3408231 147.83775,92.0498231 129.55475,102.836823 L90.8417502,37.4348231 Z" id="Fill-23" fill="#55B0EB"/><path d="M82.6250502,270.835323 C73.3400502,261.646323 31.9530502,286.758323 21.0070502,294.480323 C30.3540502,321.843323 48.5280502,351.947323 71.0180502,366.534323 C80.5280502,373.780323 112.02205,385.826323 105.78405,366.609323 C98.7040502,361.083323 63.2780502,331.162323 76.6220502,316.126323 C83.8480502,306.560323 92.4900502,311.154323 99.5690502,316.425323 C106.05505,321.589323 117.97305,313.076323 113.05605,306.059323 C104.25405,295.360323 87.4460502,283.260323 82.6250502,270.835323" id="SKIN" fill="#edb98a"/></g></g></g><g id="Head" transform="translate(362.000000, -61.000000) scale(1 1)"><g id="Head/Bun" stroke="none" stroke-width="1" fill="none" fill-rule="evenodd"><circle id="Oval" fill="#000" cx="29" cy="70" r="25"/><g id="Head" transform="translate(22.000000, 72.000000)"><g id="head" transform="translate(0.000000, 0.000100)" fill="#edb98a"><path d="M13,62 L58,62 L58,113.633 C58,127.538 47.926,138.81 35.5,138.81 C23.074,138.81 13,127.538 13,113.633 L13,62 Z" id="SKIN"/><path d="M60.0525,94 L55.0655,94 C31.8335,94 13.0005,75.167 13.0005,51.935 L13.0005,32.203 C13.0005,14.418 27.4175,0 45.2035,0 L50.7965,0 C68.5825,0 83.0005,14.418 83.0005,32.203 L83.0005,71.052 C83.0005,83.726 72.7265,94 60.0525,94" id="SKIN"/><path d="M25,58.5 C25,65.403 19.404,71 12.5,71 C5.596,71 0,65.403 0,58.5 C0,51.597 5.596,46 12.5,46 C19.404,46 25,51.597 25,58.5" id="SKIN"/></g><path d="M10.067,53.1685 C10.9718309,53.1685 12.2239875,53.3771928 13.5088204,54.0196092 C15.6553998,55.0928989 17.0130325,57.055328 17.10411,59.9021045 L17.109,60.2105 L14.109,60.2105 C14.109,58.3751144 13.4076866,57.3231443 12.1671796,56.7028908 C11.7065142,56.4725581 11.1976823,56.3199085 10.686339,56.2346846 C10.4347302,56.1927498 10.2385731,56.1747448 10.1250097,56.169908 L10.067,56.1685 L10.067,53.1685 Z" id="ear-line" fill="#000"/><path d="M34.7507501,96.3317762 C25.4557924,93.0436693 20.8185822,84.7387742 18.9822222,73.5681961 C26.2532122,85.6702724 39.4406226,93.8133264 54.5439426,93.9968331 L55.0655,94 L58,94 C50.0632106,98.2298391 42.3134606,99.0070978 34.7507501,96.3317762 Z" id="SHADOW" fill="#000" opacity=".12"/></g><path d="M72.8086245,72 C89.5888073,72 103.384617,84.7181817 104.999901,100.998998 L43.973,100.998 L39.4959832,117.92634 L37.6122668,117.973042 C36.103273,118.003782 34.2071707,118.024615 34.0157661,117.940922 L34,117.92634 L34.0133311,116.935282 C34.0935066,112.893789 34.4987262,104.151433 34.4987262,104.151433 C34.4987262,86.5724777 48.6220557,72.2882344 66.1518229,72.0043074 L66.6840596,72 L72.8086245,72 Z" id="Path" fill="#000"/></g></g><g id="Expression" transform="translate(409.000000, 34.000000) scale(1 1)" fill="#000"><g id="Expression/Happy" stroke="none" stroke-width="1" fill="none" fill-rule="evenodd"><path d="M20.5607,22 C20.5607,20.343 19.2177,19 17.5607,19 C15.9037,19 14.5607,20.343 14.5607,22 C14.5607,23.657 15.9037,25 17.5607,25 C19.2177,25 20.5607,23.657 20.5607,22" id="Fill-1" fill="#000"/><path d="M46.5607,22 C46.5607,20.343 45.2177,19 43.5607,19 C41.9037,19 40.5607,20.343 40.5607,22 C40.5607,23.657 41.9037,25 43.5607,25 C45.2177,25 46.5607,23.657 46.5607,22" id="Fill-3" fill="#000"/><polygon id="Stroke-5" fill="#000" points="33.1977829 19.396766 36.1476171 18.850434 40.4350211 41.9996 30.5607 41.9996 30.5607 38.9996 36.828 38.999"/><path d="M21.9219,41.586 C21.9219,45.2602625 25.6639817,48.6581933 29.6815435,48.7900329 L29.9229,48.794 L29.9229,51.794 C24.3252295,51.794 19.0961019,47.2280163 18.9261594,41.8552911 L18.9219,41.586 L21.9219,41.586 Z" id="Stroke-7" fill="#000"/><path d="M23.0607,9 L23.0607,12 C19.8342736,12 16.8913939,12.8655529 14.2891644,14.3112359 C13.508469,14.7449556 12.8086718,15.2043948 12.1956619,15.6654963 L11.8964164,15.8960741 C11.548672,16.1706093 11.3051282,16.3844813 11.1717567,16.5115787 L11.1213602,16.5606602 L9.00003983,14.4393398 C9.71719288,13.7221868 11.0118484,12.7000903 12.8322356,11.6887641 C15.7235813,10.0824609 18.9894549,9.08904431 22.5704367,9.00569674 L23.0607,9 Z" id="Stroke-9" fill="#000"/><path d="M37.0607,9 C40.8342736,9 44.2663939,10.0094471 47.2891644,11.6887641 C48.9957774,12.6368824 50.2403215,13.5944668 50.980139,14.3013772 L51.1213602,14.4393398 L49.0000398,16.5606602 L48.8084832,16.3819961 C48.6965748,16.2822525 48.549249,16.1566104 48.3676199,16.0099419 L48.2249836,15.8960741 C47.5437467,15.3582556 46.7430469,14.8172422 45.8322356,14.3112359 C43.3601176,12.937837 40.5805627,12.0880056 37.5425302,12.006456 L37.0607,12 L37.0607,9 Z" id="Stroke-11" fill="#000"/></g></g><g id="Accessories" transform="translate(396.000000, 56.000000) scale(1 1)" fill="#000"><g id="Accessories/None" stroke="none" stroke-width="1" fill="none" fill-rule="evenodd" fill-opacity="0"/></g><g id="Glasses" transform="translate(388.000000, 42.000000) scale(1 1)" fill="#000"><g id="Glasses/None" stroke="none" stroke-width="1" fill="none" fill-rule="evenodd" fill-opacity="0"/></g></g></g><g transform="translate(1464.000000, 870.500000) scale(-1, 1) translate(-1464.000000, -870.500000) translate(1012.000000, 441.000000) scale(1 1)" id="Master/Character/Sitting"><g id="Master/Character/Sitting" stroke="none" stroke-width="1" fill="none" fill-rule="evenodd"><g id="Legs Sitting" transform="translate(317.000000, 266.000000) scale(1 1)"><g id="Legs Sitting/Jeans Relaxed" stroke="none" stroke-width="1" fill="none" fill-rule="evenodd"><g id="Group-20" transform="translate(0.000000, -1.000000)"><path d="M147.797063,357 L102.272184,312.347991 C99.8328245,309.933177 114.533567,287.616692 116.731205,284.979435 C163.314308,228.036926 197.208865,187.422967 232.374767,121.88332 C240.901456,116.943473 279.161765,134.24897 289.398958,136.125711 C299.252349,138.816074 301.250705,151.545449 296.633082,160.163628 C275.707543,199.28862 177.611873,350.175396 147.797063,357" id="Fill-1" fill="#d29863"/><path d="M117.825919,0 C117.825919,0 105.150436,74.5529129 105.150436,74.5529129 C104.448937,77.4737988 106.274856,80.2576432 109.086367,80.7918052 C145.936649,89.3854118 191.060569,97.0587392 222.194971,115.992482 C194.311551,168.57143 157.082478,215.177566 120.452851,261.387582 L194.716085,332 C309.871263,181.770433 452.951417,54.0323887 191.975551,0 C191.975551,0 167.259007,0 117.825919,0 Z" id="Fill-3" fill="#3E36B9"/><path d="M170.491777,338.805518 C166.726514,335.157864 153.1532,322.001718 140.495488,309.735243 C131.643446,322.366583 108.224429,299.466032 118.617473,288.532066 C116.959839,286.926658 116.00383,286 116.00383,286 C110.549708,292.644549 99.5009574,306.013616 94,312.633174 L173.309296,389 L179.952689,380.986956 C185.700684,374.056513 165.692444,351.237932 170.491777,338.805518" id="Fill-5" fill="#D7DBE2"/><path d="M194.240962,332 L120,261.050193 C126.644543,252.735895 133.218468,244.385497 139.701598,236 L215,305.605039 C208.135348,314.483918 201.212917,323.275553 194.240962,332" id="Fill-7" fill="#D7DBE2"/><path d="M400.180454,417.954163 L338.931469,419 C335.636799,419.055001 332.020586,394.090332 331.929374,390.880975 C329.14512,323.128888 320.219292,275.618587 291.566903,214.901242 C287.721278,203.531264 274.928635,193.276146 277.288157,181.536551 C277.885177,170.952886 308.756125,149.109426 314.589976,141.896387 C335.698528,126.062959 347.245536,162.630996 356.167679,177.496809 C390.5019,249.587137 402.805318,330.731578 405.996799,410.945465 C406.104595,414.735792 403.476045,417.90408 400.180454,417.954163" id="Fill-9" fill="#edb98a"/><path d="M87.7268826,0 L30.0976641,48.4351379 C27.3138168,52.0434485 84.9457952,96.9799765 87.7268826,100.016763 C109.207026,102.890344 286.479329,78.6678757 318.838564,372 L417,360.915831 C409.45157,276.085132 392.572802,212.888784 364.516799,163.872084 C316.738091,80.3978037 266.629222,4.72614106 114.812898,0 C114.812898,0 105.784226,0 87.7268826,0 Z" id="Fill-11" fill="#694FD9"/><g id="Group-15" transform="translate(331.000000, 384.000000)" fill="#D7DBE2"><path d="M73.4860449,0.8901 C68.4295534,1.2821 50.1951466,2.6951 33.1929941,4.0111 C35.3794602,19.3701 3.74359576,21.2141 3.80179068,6.2871 C1.57652797,6.4601 0.461587288,6.5611 0.461587288,6.5611 C1.15161271,17.1021 1.46568051,27.6341 1.5294178,38.1571 L108.032579,39.0001 C108.026113,37.1441 108.013181,33.4161 107.971613,31.5771 C112.494189,12.4841 78.3189941,15.0821 73.4860449,0.8901" id="Fill-13"/></g><path d="M417,360.910517 L318.620975,372 C317.648574,361.768864 316.437902,351.574743 315,341.479662 L412.73781,325 C414.442502,336.956834 415.859246,348.92167 417,360.910517" id="Fill-16" fill="#D7DBE2"/><path d="M100.091346,99 L90.9086538,99 C40.7013654,99 -4.00177669e-11,54.676 -4.00177669e-11,0 L191,0 C191,54.676 150.298635,99 100.091346,99" id="Fill-18" fill="#694FD9"/></g><path d="M56,99 C25.072054,99 -4.00139793e-11,73.927946 -4.00177669e-11,43 L-4.00177669e-11,0 L192,0 C192,54.676 151.085538,99 100.615385,99 L56,99 Z" id="PELVIS-PLUS" fill="#694FD9"/></g></g><g id="Body" transform="translate(41.000000, -31.000000) scale(1 1)"><g id="Body/Bomber Jacket Holding Hands" stroke="none" stroke-width="1" fill="none" fill-rule="evenodd"><g id="Group-50" transform="translate(211.000000, 107.000000)"><path d="M276.241,190.8684 L61.76,190.8684 L61.76,83.8064 C61.76,60.3384 80.785,41.3124 104.254,41.3124 L233.747,41.3124 C257.216,41.3124 276.241,60.3384 276.241,83.8064 L276.241,190.8684 Z" id="Fill-1" fill="#D7DBE2"/><path d="M207.7595,41.3128 C207.7595,57.8688 199.7595,78.8688 173.2595,78.8688 C141.7595,78.8688 128.7595,60.9498 128.7595,41.3128 L207.7595,41.3128 Z" id="SKIN" fill="#edb98a"/><path d="M214.8943,253.2786 C240.7593,253.8686 262.7593,251.8686 286.2053,244.0246 C288.3693,243.2996 290.2093,241.9216 290.0103,239.6466 L286.8543,203.5596 C262.7733,204.6066 237.6253,209.2836 211.1563,213.4326 C210.6583,226.3526 210.1503,238.2786 209.6833,248.6256 C209.5553,251.4756 212.0413,253.2136 214.8943,253.2786" id="Fill-5" fill="#CC2935"/><path d="M49.3113,204.7112 L46.4493,237.4342 C46.1123,241.2802 48.4423,244.8862 52.1103,246.0912 C76.6973,254.1692 111.9113,258.3152 135.0273,259.9352 C138.6883,260.1912 141.9093,257.5892 142.4613,253.9602 C144.0283,243.6732 145.1583,232.2482 145.9333,220.0972 C121.2263,219.1352 76.4023,214.8262 49.3113,204.7112" id="Fill-7" fill="#CC2935"/><path d="M90.1228,43.1155 C72.6308,48.3785 59.8868,64.6005 59.8868,83.8065 L49.3108,204.7115 C76.4018,214.8265 121.2268,219.1355 145.9338,220.0965 C148.9858,172.1915 152.7598,75.8685 123.7598,60.8685 C123.7598,60.8685 102.7598,38.8685 90.1228,43.1155" id="Fill-9" fill="#FA3239"/><path d="M211.156,213.4329 C238.76,214.8689 261.76,212.8689 286.854,203.5599 L276.38,83.8069 C276.38,62.4119 260.566,44.7179 239.991,41.7559 C237.324,52.1209 227.655,55.3719 213.76,61.8689 C214.413,106.2699 212.881,168.7459 211.156,213.4329" id="Fill-11" fill="#FA3239"/><path d="M216.3865,264.1399 C216.8605,273.2549 213.5195,281.6609 207.3355,287.8349 C201.1815,293.9639 192.1435,297.7339 182.1095,297.3469 C171.1195,296.9149 160.0355,295.9859 148.8655,294.3969 C137.6985,292.8079 126.4395,290.5729 115.1245,287.3189 C105.0785,284.4229 94.9855,280.8549 84.9795,276.0269 C74.9905,271.2059 65.0485,265.2849 55.7135,257.5399 L53.9655,256.1029 L52.2505,254.5669 C51.1155,253.5289 49.9675,252.5289 48.8575,251.4419 L45.5595,248.1209 C44.4585,247.0249 43.4285,245.7899 42.3705,244.6199 C38.1985,239.8489 34.2895,234.6479 30.9655,228.9539 C27.6385,223.2859 24.7185,217.2639 22.5605,210.9639 C20.3945,204.6799 18.8105,198.2119 17.8905,191.7489 C17.0295,185.2979 16.7005,178.8689 16.9335,172.6169 C16.9715,171.0449 17.1185,169.5219 17.2185,167.9729 C17.3245,166.4249 17.4495,164.8849 17.6585,163.3899 L18.2445,158.8689 L19.0315,154.4619 L19.4405,152.2629 L19.9305,150.1199 L20.9405,145.8459 L22.1095,141.6919 C22.5055,140.3099 22.8935,138.9169 23.3575,137.5949 C24.2515,134.9169 25.1345,132.2169 26.1625,129.6609 L27.6725,125.7849 L29.2965,122.0259 C38.1005,102.0619 49.5915,85.0869 61.9105,69.6069 C64.7355,65.9909 68.2765,63.3399 72.0405,61.4339 C75.8745,59.6329 79.9495,58.6069 84.0945,58.5229 C92.3925,58.3309 100.6795,61.5689 107.2745,67.8889 C113.8355,74.1789 117.5685,82.2559 118.5815,89.9659 C119.0755,93.8249 118.9815,97.6529 118.0885,101.1559 C117.3115,104.7119 115.6985,107.9369 113.4845,110.7909 C103.6685,123.0559 95.2575,135.9089 89.7455,148.5209 C84.1515,161.1129 81.8565,173.2419 83.2415,182.5139 C83.5805,184.8509 84.1485,187.0359 84.8535,189.1569 C85.5515,191.2789 86.5755,193.2699 87.7205,195.2669 C88.8515,197.2649 90.3255,199.1889 91.9915,201.1029 C93.6255,203.0289 95.6075,204.8809 97.7855,206.6879 C99.9175,208.5209 102.4325,210.2119 105.0275,211.8819 C106.3765,212.6839 107.6925,213.5209 109.1465,214.2689 C110.5325,215.0679 112.0385,215.7819 113.5255,216.5189 C119.5215,219.4329 126.2385,221.8349 133.2555,223.8579 C141.1625,226.1439 149.5645,227.8359 158.1935,229.0589 C166.8235,230.2859 175.6955,231.0449 184.6875,231.3979 C192.8665,231.7099 200.3365,235.3519 206.1205,241.1809 C211.8735,246.9689 215.9145,255.0559 216.3865,264.1399" id="SKIN" fill="#edb98a"/><path d="M237.5857,286.6458 C238.0697,291.5928 234.1537,296.0388 228.7997,296.4178 C205.5537,298.1068 181.8947,298.2458 157.7837,295.5308 C155.0177,295.2218 152.6327,293.9268 151.0487,292.0408 C149.4647,290.1748 148.6927,287.7928 149.0557,285.3348 C149.8087,280.3948 154.6147,277.0988 159.7917,277.6438 C182.4997,280.2048 205.1247,280.0938 227.4727,278.4678 C232.5847,278.1048 237.1027,281.6988 237.5857,286.6458" id="SKIN" fill="#edb98a"/><path d="M211.9763,231.302 C212.0833,233.784 211.2513,236.068 209.7893,237.755 C208.3303,239.453 206.2443,240.529 203.9153,240.557 C194.8593,240.739 185.8483,240.577 176.9463,240.007 C175.8023,239.931 174.5773,239.285 173.3993,238.363 C172.2233,237.427 171.1043,236.181 170.1363,234.969 C169.1683,233.752 168.3563,232.55 167.7863,231.652 C167.2143,230.76 166.8943,230.145 166.8943,230.145 C169.5363,230.412 170.6413,228.23 172.2393,226.122 C173.8363,224.03 175.9503,221.902 180.6873,222.212 C188.1983,222.626 195.8463,222.713 203.5573,222.56 C205.7633,222.534 207.7983,223.477 209.3293,225.035 C210.8543,226.606 211.8693,228.819 211.9763,231.302" id="SKIN" fill="#edb98a"/><path d="M237.7986,238.4016 C238.3356,243.3556 234.8786,247.7276 230.0746,248.1786 C214.0296,249.5106 197.9616,250.0426 182.0776,249.2986 C180.8946,249.2456 179.7776,248.9486 178.7796,248.4426 C177.7846,247.9196 176.9086,247.1996 176.1956,246.3356 C174.7686,244.6076 174.0006,242.3016 174.1856,239.8236 C174.3696,237.3446 175.4556,235.1616 177.0266,233.6336 C177.8116,232.8716 178.7206,232.2716 179.7076,231.8826 C180.6996,231.4756 181.7766,231.2666 182.8916,231.3176 C197.8526,232.0206 213.1706,231.5196 228.5426,230.2456 C233.1146,229.8136 237.2606,233.4726 237.7986,238.4016" id="SKIN" fill="#edb98a"/><path d="M150.298,300.6573 C138.783,299.0853 127.154,296.8853 115.416,293.6463 C114.776,293.8513 114.038,294.0173 113.176,294.1363 C111.314,294.4853 108.948,294.6843 106.082,294.5083 C104.651,294.4343 103.102,294.3063 101.44,294.1203 C99.772,293.8933 97.988,293.5933 96.099,293.2393 C88.541,291.7443 79.183,288.9683 68.544,283.9333 C67.218,283.3433 65.865,282.6033 64.5,281.9033 C63.134,281.1763 61.754,280.4913 60.354,279.6673 C57.557,278.0343 54.702,276.3513 51.807,274.3473 C46.025,270.4353 40.059,265.7703 34.263,260.0153 C28.471,254.2973 22.83,247.5743 17.878,239.8443 C12.923,232.1303 8.698,223.4043 5.685,214.1733 C2.655,204.9483 0.853,195.2683 0.248,185.8063 C-0.374,176.3273 0.215,167.1173 1.575,158.4713 C2.94,149.8143 5.081,141.7123 7.644,134.1623 C10.259,126.6743 13.299,119.7503 16.534,113.2963 C23.094,100.5183 25.381139,92.9589449 39.8901504,73.4645654 C54.3991619,53.9701858 77.869,43.4093 88.942,43.5311594 C100.039,43.5933 110.956,48.3903 119.377,57.1123 C127.834,65.8683 132.348,76.7703 133.436,87.0333 C134.459,97.3183 132.219,106.9953 126.241,114.1353 C121.659,121.8193 117.102,129.6363 113.13,137.3063 C112.65,138.2583 112.171,139.2133 111.689,140.1703 L110.956,141.5953 L110.293,143.0123 C109.841,143.9483 109.386,144.8883 108.932,145.8273 L107.704,148.6023 L107.076,149.9803 L106.527,151.3373 C106.167,152.2373 105.757,153.1423 105.411,154.0263 C104.771,155.7843 104.047,157.5343 103.524,159.1993 C101.153,165.9463 100.096,171.7143 99.766,175.9303 C99.459,180.2163 99.719,182.8053 100.375,185.5833 C100.72,186.9743 101.233,188.4343 102.002,190.0293 C102.23,190.4193 102.354,190.8433 102.623,191.2443 C102.876,191.6493 103.114,192.0663 103.339,192.4983 C103.935,193.3233 104.436,194.2123 105.141,195.0713 C105.455,195.5123 105.771,195.9603 106.166,196.3883 C106.534,196.8353 106.898,197.2783 107.259,197.7163 C108.105,198.5683 108.815,199.4913 109.738,200.3333 C110.176,200.7733 110.607,201.2083 111.034,201.6383 C111.503,202.0633 111.965,202.4853 112.421,202.8993 C113.286,203.7713 114.332,204.5423 115.24,205.3723 C119.061,208.5993 123.048,211.4463 126.414,213.9153 C128.074,215.1773 129.647,216.2893 130.969,217.3543 C132.27,218.4433 133.442,219.3543 134.287,220.2513 C134.726,220.6403 135.076,221.0033 135.372,221.3513 C143.282,223.5363 151.691,225.1513 160.322,226.3303 L150.298,300.6573 Z" id="Fill-28" fill="#FA3239"/><path d="M115.8015,293.7551 L136.0265,219.9771 C143.7935,222.0951 152.0395,223.6891 160.5225,224.8421 L150.2975,300.6551 C138.9095,299.1071 127.4065,296.9211 115.8015,293.7551" id="Fill-31" fill="#CC2935"/><path d="M117.7595,0.8684 C76.7595,5.8684 72.8625,40.6324 90.1225,44.1154 C103.7595,46.8684 112.5035,62.8764 124.4635,69.0254 C127.1315,70.3974 130.2735,68.2964 130.0645,65.3034 C130.0055,64.4554 129.9465,63.6124 129.8875,62.7764 C129.2305,53.5054 130.6165,41.6474 139.9105,41.7184 C156.5735,41.8424 181.5245,41.8234 197.5555,41.6824 C206.2515,41.6054 213.4145,49.5104 213.6255,58.2044 C213.6605,59.6314 213.6935,61.0754 213.7225,62.5334 C213.7805,65.4724 216.9675,67.2784 219.5185,65.8174 C230.3275,59.6264 237.7045,51.6394 239.9905,42.7564 C240.4865,40.8314 240.7595,38.8674 240.7595,36.8684 C240.7595,13.6724 159.4275,-4.2126 117.7595,0.8684" id="Fill-13" fill="#CC2935"/><path d="M237.1355,264.0598 C236.9665,268.6128 237.7365,272.9798 239.3755,276.9798 C240.1965,278.9738 241.2265,280.8978 242.4685,282.6688 C243.7135,284.4318 245.1635,286.0758 246.7965,287.5758 C253.3095,293.5368 263.0205,297.0378 274.0745,295.7028 C277.0645,295.3898 280.1805,294.8408 283.2405,294.3668 C286.3775,293.7508 289.4735,293.1908 292.6935,292.3608 L295.0845,291.7728 C295.8815,291.5748 296.7075,291.3158 297.5175,291.0868 L299.9545,290.3708 L301.1725,290.0068 C301.5845,289.8828 302.1045,289.6958 302.5645,289.5398 C304.4635,288.8798 306.3425,288.2218 308.2325,287.4908 C310.1495,286.7038 312.0555,285.8868 313.9465,285.0438 C321.4505,281.5498 328.4985,277.1258 334.6785,271.7278 C340.8495,266.3258 346.1165,259.9278 350.1555,252.8178 C353.1015,247.5998 355.4155,242.0198 357.0005,236.2238 C358.5705,230.4228 359.4575,224.4368 359.7435,218.3998 C360.0325,212.3568 359.6015,206.2758 358.7755,200.2548 C358.5425,198.7528 358.2935,197.2508 358.0275,195.7528 L357.8245,194.6308 L357.6245,193.7048 L357.2185,191.8648 C356.6985,189.3738 356.0495,187.0468 355.4085,184.6928 C352.7685,175.3788 349.3455,167.0128 345.6255,159.0868 C341.8865,151.1818 337.7885,143.7828 333.4785,136.7028 C324.8415,122.5628 315.3785,109.6418 305.4965,97.3398 C295.5905,85.0728 285.2435,73.4508 274.5885,62.2748 C269.6575,57.1248 262.5015,55.1158 255.0365,56.1368 C247.5755,57.1278 239.8235,61.1148 233.4665,67.6448 C227.1115,74.1728 223.3085,81.9678 222.1245,89.2248 C220.9705,96.4768 222.4035,103.2058 226.8335,107.8308 C236.4185,117.8828 245.5815,128.1958 254.1045,138.7508 C262.5915,149.3058 270.4565,160.1298 277.1085,171.0308 C280.4255,176.4738 283.4235,181.9328 285.9525,187.2878 C288.4665,192.6258 290.5705,197.9028 291.9155,202.7078 C292.2265,203.8958 292.5835,205.0958 292.7945,206.2008 L292.9875,207.0438 L293.0835,207.4598 L293.1095,207.6928 C293.1485,208.0028 293.2025,208.3088 293.2745,208.6138 C293.4705,209.8448 293.5805,211.0918 293.5585,212.3388 C293.5155,214.8238 293.0005,217.3528 291.7215,219.5068 C290.0865,222.5248 287.1955,224.6568 284.1015,226.0168 L282.9215,226.5018 C282.4725,226.6448 281.9835,226.7918 281.5305,226.9758 C281.3985,227.0218 281.3365,227.0648 281.1495,227.1188 L280.5675,227.2828 L279.4065,227.6208 C279.0135,227.7298 278.6505,227.8628 278.2335,227.9598 L276.9805,228.2578 C275.3615,228.6988 273.5285,229.0008 271.7645,229.3718 C269.8805,229.6368 268.0745,229.9958 266.0865,230.1868 C259.0415,231.0478 252.2225,234.9328 246.8005,240.9068 C245.4485,242.3918 244.1965,244.0218 243.0705,245.7728 C241.9405,247.5148 240.9285,249.3448 240.0795,251.2978 C238.3805,255.1968 237.3045,259.5068 237.1355,264.0598" id="SKIN" fill="#edb98a"/><path d="M215.9256,286.678 C215.6906,289.152 216.5496,291.496 218.1566,293.288 C219.7766,295.054 222.1596,296.243 224.8736,296.45 C236.7336,297.292 248.9176,297.542 261.5876,296.824 C267.9456,296.421 274.3896,295.837 281.0896,294.709 C287.7966,293.597 294.5786,292.124 301.8056,289.8 C303.6936,289.157 305.4036,288.28 306.8416,287.265 C308.2816,286.249 309.5006,284.98 310.3506,283.741 C312.0836,281.248 312.3886,278.565 311.2126,276.368 C310.0416,274.183 307.6966,272.845 304.9806,272.201 C303.6246,271.878 302.1716,271.814 300.6996,271.861 C299.2276,271.907 297.7236,272.171 296.2266,272.687 C290.1276,274.648 284.1526,275.958 278.1906,276.945 C272.2316,277.952 266.3546,278.485 260.5176,278.855 C248.8586,279.515 237.3996,279.298 226.1156,278.493 C223.5316,278.294 221.1146,279.124 219.2676,280.609 C217.4316,282.067 216.1596,284.204 215.9256,286.678" id="SKIN" fill="#edb98a"/><path d="M206.2791,269.5423 C205.6691,274.4493 209.3161,279.0183 214.5061,279.5073 C224.5421,280.5083 234.6951,281.1593 245.0171,281.232445 C246.3451,281.2393 247.6111,280.9933 248.7561,280.5423 C249.9041,280.0773 250.9351,279.3853 251.7851,278.5553 C253.4891,276.8883 254.4691,274.6143 254.3881,272.1313 C254.3061,269.6473 253.2001,267.4213 251.5291,265.8293 C250.6921,265.0303 249.7131,264.4033 248.6341,263.9583 C247.5551,263.4973 246.3781,263.2393 245.1391,263.2323 C235.5111,263.1653 225.8831,262.5533 216.2901,261.5953 C213.8231,261.3723 211.4881,262.1083 209.6761,263.5323 C207.8671,264.9603 206.5811,267.0753 206.2791,269.5423" id="SKIN" fill="#edb98a"/><path d="M206.2634,253.4319 C205.6214,258.3529 209.1244,262.8459 214.0964,263.3909 C223.7324,264.4079 233.4144,265.0829 243.1174,265.222919 C245.6154,265.2279 247.8814,264.2549 249.4784,262.6029 C251.0784,260.9379 252.0074,258.6659 251.9484,256.1819 C251.8884,253.6979 250.8754,251.4689 249.3374,249.8749 C247.7924,248.2699 245.6974,247.2279 243.3854,247.2249 C234.3534,247.0959 225.1794,246.4609 215.9744,245.4899 C211.2564,244.9719 206.9044,248.4949 206.2634,253.4319" id="SKIN" fill="#edb98a"/><path d="M240.99,231.1624 L240.99,231.1624 C240.922,233.6414 241.765,235.9334 243.203,237.5884 C244.628,239.2204 246.665,240.2454 248.907,240.2474 C257.559,240.1454 266,239.5264 273.721,238.1554 C274.696,237.9594 275.668,237.1934 276.54,236.1674 C277.397,235.1234 278.091,233.7654 278.665,232.4814 C279.254,231.2044 279.607,229.9074 279.84,228.9584 C280.073,228.0094 280.18,227.3934 280.18,227.3934 C278.346,227.9604 277.055,225.9254 275.517,223.9814 C274.737,223.0064 273.943,222.0844 272.803,221.4224 C271.668,220.7654 270.416,220.5084 268.496,220.7674 C262.589,221.6974 255.837,222.1844 248.737,222.2484 C246.683,222.2444 244.807,223.2344 243.411,224.8624 C242.002,226.4664 241.053,228.6734 240.99,231.1624" id="SKIN" fill="#edb98a"/><path d="M215.7703,238.4358 L215.7703,238.4358 C215.2173,243.3678 218.6453,247.7818 223.4153,248.1998 C231.3763,248.8918 239.2953,249.2408 247.1143,249.2438 C254.9263,249.2328 262.6403,248.8268 270.0583,247.8448 C272.2433,247.4988 274.0963,246.2338 275.1583,244.3568 C276.2293,242.4828 276.5813,240.1228 276.0733,237.6898 C275.5663,235.2568 274.3363,233.2028 272.8553,231.8388 C271.3713,230.4818 269.5003,229.7068 267.6473,230.0068 C261.2443,230.8538 254.2813,231.2358 247.0913,231.2438 C239.8893,231.2408 232.4673,230.9208 224.9163,230.2618 C220.4303,229.8688 216.3193,233.4878 215.7703,238.4358" id="SKIN" fill="#edb98a"/><path d="M313.4014,291.8292 C331.5754,284.9462 344.7524,271.1172 356.3124,256.3272 C381.1964,234.1862 376.2964,186.8552 363.2494,157.3502 C346.1484,115.9642 316.956551,77.7216228 290.025072,58.5148317 C263.093593,39.3080407 258.366609,41.7559 240.216071,41.7559 C240.216071,48.1667667 235.491206,55.605444 226.041476,64.071932 C218.252759,91.8441107 218.8254,110.7762 227.7594,120.8682 C249.2144,152.6072 263.6894,176.0722 281.0664,209.8802 C284.5644,211.4382 286.8334,215.2632 288.8014,218.3802 C287.2854,220.8012 284.8374,222.4872 282.2244,223.5432 L313.4014,291.8292 Z" id="Fill-45" fill="#FA3239"/><path d="M344.7596,270.8684 L298.7596,208.8684 C298.7596,208.8684 283.9046,221.2404 281.5996,222.1754 L313.4006,291.8274 C321.5666,288.3384 329.2916,283.8584 336.1226,278.3144 C342.9576,272.7824 344.7596,270.8684 344.7596,270.8684" id="Fill-48" fill="#CC2935"/></g></g></g><g id="Head" transform="translate(362.000000, -61.000000) scale(1 1)"><g id="Head/Bun" stroke="none" stroke-width="1" fill="none" fill-rule="evenodd"><circle id="Oval" fill="#000" cx="29" cy="70" r="25"/><g id="Head" transform="translate(22.000000, 72.000000)"><g id="head" transform="translate(0.000000, 0.000100)" fill="#edb98a"><path d="M13,62 L58,62 L58,113.633 C58,127.538 47.926,138.81 35.5,138.81 C23.074,138.81 13,127.538 13,113.633 L13,62 Z" id="SKIN"/><path d="M60.0525,94 L55.0655,94 C31.8335,94 13.0005,75.167 13.0005,51.935 L13.0005,32.203 C13.0005,14.418 27.4175,0 45.2035,0 L50.7965,0 C68.5825,0 83.0005,14.418 83.0005,32.203 L83.0005,71.052 C83.0005,83.726 72.7265,94 60.0525,94" id="SKIN"/><path d="M25,58.5 C25,65.403 19.404,71 12.5,71 C5.596,71 0,65.403 0,58.5 C0,51.597 5.596,46 12.5,46 C19.404,46 25,51.597 25,58.5" id="SKIN"/></g><path d="M10.067,53.1685 C10.9718309,53.1685 12.2239875,53.3771928 13.5088204,54.0196092 C15.6553998,55.0928989 17.0130325,57.055328 17.10411,59.9021045 L17.109,60.2105 L14.109,60.2105 C14.109,58.3751144 13.4076866,57.3231443 12.1671796,56.7028908 C11.7065142,56.4725581 11.1976823,56.3199085 10.686339,56.2346846 C10.4347302,56.1927498 10.2385731,56.1747448 10.1250097,56.169908 L10.067,56.1685 L10.067,53.1685 Z" id="ear-line" fill="#000"/><path d="M34.7507501,96.3317762 C25.4557924,93.0436693 20.8185822,84.7387742 18.9822222,73.5681961 C26.2532122,85.6702724 39.4406226,93.8133264 54.5439426,93.9968331 L55.0655,94 L58,94 C50.0632106,98.2298391 42.3134606,99.0070978 34.7507501,96.3317762 Z" id="SHADOW" fill="#000" opacity=".12"/></g><path d="M72.8086245,72 C89.5888073,72 103.384617,84.7181817 104.999901,100.998998 L43.973,100.998 L39.4959832,117.92634 L37.6122668,117.973042 C36.103273,118.003782 34.2071707,118.024615 34.0157661,117.940922 L34,117.92634 L34.0133311,116.935282 C34.0935066,112.893789 34.4987262,104.151433 34.4987262,104.151433 C34.4987262,86.5724777 48.6220557,72.2882344 66.1518229,72.0043074 L66.6840596,72 L72.8086245,72 Z" id="Path" fill="#000"/></g></g><g id="Expression" transform="translate(409.000000, 34.000000) scale(1 1)" fill="#000"><g id="Expression/Happy" stroke="none" stroke-width="1" fill="none" fill-rule="evenodd"><path d="M20.5607,22 C20.5607,20.343 19.2177,19 17.5607,19 C15.9037,19 14.5607,20.343 14.5607,22 C14.5607,23.657 15.9037,25 17.5607,25 C19.2177,25 20.5607,23.657 20.5607,22" id="Fill-1" fill="#000"/><path d="M46.5607,22 C46.5607,20.343 45.2177,19 43.5607,19 C41.9037,19 40.5607,20.343 40.5607,22 C40.5607,23.657 41.9037,25 43.5607,25 C45.2177,25 46.5607,23.657 46.5607,22" id="Fill-3" fill="#000"/><polygon id="Stroke-5" fill="#000" points="33.1977829 19.396766 36.1476171 18.850434 40.4350211 41.9996 30.5607 41.9996 30.5607 38.9996 36.828 38.999"/><path d="M21.9219,41.586 C21.9219,45.2602625 25.6639817,48.6581933 29.6815435,48.7900329 L29.9229,48.794 L29.9229,51.794 C24.3252295,51.794 19.0961019,47.2280163 18.9261594,41.8552911 L18.9219,41.586 L21.9219,41.586 Z" id="Stroke-7" fill="#000"/><path d="M23.0607,9 L23.0607,12 C19.8342736,12 16.8913939,12.8655529 14.2891644,14.3112359 C13.508469,14.7449556 12.8086718,15.2043948 12.1956619,15.6654963 L11.8964164,15.8960741 C11.548672,16.1706093 11.3051282,16.3844813 11.1717567,16.5115787 L11.1213602,16.5606602 L9.00003983,14.4393398 C9.71719288,13.7221868 11.0118484,12.7000903 12.8322356,11.6887641 C15.7235813,10.0824609 18.9894549,9.08904431 22.5704367,9.00569674 L23.0607,9 Z" id="Stroke-9" fill="#000"/><path d="M37.0607,9 C40.8342736,9 44.2663939,10.0094471 47.2891644,11.6887641 C48.9957774,12.6368824 50.2403215,13.5944668 50.980139,14.3013772 L51.1213602,14.4393398 L49.0000398,16.5606602 L48.8084832,16.3819961 C48.6965748,16.2822525 48.549249,16.1566104 48.3676199,16.0099419 L48.2249836,15.8960741 C47.5437467,15.3582556 46.7430469,14.8172422 45.8322356,14.3112359 C43.3601176,12.937837 40.5805627,12.0880056 37.5425302,12.006456 L37.0607,12 L37.0607,9 Z" id="Stroke-11" fill="#000"/></g></g><g id="Accessories" transform="translate(396.000000, 56.000000) scale(1 1)" fill="#000"><g id="Accessories/None" stroke="none" stroke-width="1" fill="none" fill-rule="evenodd" fill-opacity="0"/></g><g id="Glasses" transform="translate(388.000000, 42.000000) scale(1 1)" fill="#000"><g id="Glasses/None" stroke="none" stroke-width="1" fill="none" fill-rule="evenodd" fill-opacity="0"/></g></g></g></g></svg>