<svg fill="none" height="24" viewBox="0 0 24 24" width="24" xmlns="http://www.w3.org/2000/svg"><path d="m4 9c0-2.82843 0-4.24264.87868-5.12132s2.29289-.87868 5.12132-.87868h4c2.8284 0 4.2426 0 5.1213.87868s.8787 2.29289.8787 5.12132v6.8276c0 2.6833 0 4.0249-.8443 4.4353s-1.8992-.4185-4.0092-2.0763l-.6752-.5306c-1.1864-.9321-1.7796-1.3982-2.4713-1.3982s-1.2849.4661-2.47129 1.3982l-.67525.5306c-2.10991 1.6578-3.16487 2.4867-4.00917 2.0763-.84429-.4104-.84429-1.752-.84429-4.4353z" stroke="#33363f" stroke-width="2"/></svg>