<svg fill="none" height="24" viewBox="0 0 24 24" width="24" xmlns="http://www.w3.org/2000/svg"><g stroke="#222" stroke-width="2"><path d="m14.6358 3.90949c.653-.43537.9795-.65306 1.3353-.61783s.6333.31273 1.1883.86772l2.6812 2.68124c.555.55499.8325.83249.8677 1.18826.0353.35577-.1824.6823-.6178 1.33536l-1.6486 2.47296c-.5619.8428-.8428 1.2641-1.067 1.7139-.1663.3334-.309.6781-.4273 1.0314-.1594.4766-.2587.9732-.4574 1.9664l-.191.9549c-.0006.0034-.001.0051-.0012.0063-.1424.7029-.9566 1.0318-1.5472.625-.0011-.0007-.0025-.0017-.0053-.0036-.0133-.0092-.02-.0138-.0266-.0184-3.4497-2.3906-6.44136-5.3823-8.83199-8.83202-.00458-.0066-.00919-.01326-.0184-.02657-.00196-.00282-.00293-.00423-.00365-.00527-.40671-.59066-.07782-1.4048.62504-1.54722.00123-.00025.00292-.00058.00628-.00126l.95496-.19099c.99319-.19864 1.48978-.29795 1.96636-.45741.35333-.11821.698-.26097 1.0314-.42722.4498-.22425.8711-.50516 1.7139-1.06699z" fill="#222"/><path d="m5 19 4.5-4.5" stroke-linecap="round"/></g></svg>